<svg id="Group_3812" data-name="Group 3812" xmlns="http://www.w3.org/2000/svg" width="30" height="30" viewBox="0 0 30 30">
  <path id="Vector" d="M15,30A15,15,0,1,1,30,15,15,15,0,0,1,15,30Z" fill="#333"/>
  <g id="Group_7084" data-name="Group 7084" transform="translate(9 7)">
    <path id="Vector-2" data-name="Vector" d="M2.393,10.554A9.427,9.427,0,0,1,.719,7.9,8.834,8.834,0,0,1,0,4.414,4.992,4.992,0,0,1,.618,1.94,3.643,3.643,0,0,1,3.024.127,2.473,2.473,0,0,1,4.306.113c.424.125.842.274,1.258.424A1.409,1.409,0,0,0,6.657.6c.249-.108.507-.193.762-.286A4.1,4.1,0,0,1,8.707,0a3.707,3.707,0,0,1,2.377.707,3.071,3.071,0,0,1,.74.78c-.028.021-.049.039-.072.054a3.835,3.835,0,0,0-.807.743,3.18,3.18,0,0,0-.688,2.594,3.126,3.126,0,0,0,.864,1.742,4.5,4.5,0,0,0,1.147.793c-.065.154-.193.4-.255.559A8.572,8.572,0,0,1,10.975,9.83a5.309,5.309,0,0,1-1,1.135,1.785,1.785,0,0,1-1.259.4,2.9,2.9,0,0,1-1.02-.288,2.939,2.939,0,0,0-2.181-.159c-.186.058-.362.15-.548.21a4.88,4.88,0,0,1-1.242.213A2.478,2.478,0,0,1,2.393,10.554Z" transform="translate(0 3.63)" fill="#fff"/>
    <g id="Group" transform="translate(6.077)">
      <path id="Vector-3" data-name="Vector" d="M4.141,4.881a3.18,3.18,0,0,1,.688-2.594,3.835,3.835,0,0,1,.807-.743c.023-.016.044-.033.072-.054a3.071,3.071,0,0,0-.74-.78A3.708,3.708,0,0,0,2.591,0,4.1,4.1,0,0,0,1.3.311C1.048.405.789.49.54.6A1.064,1.064,0,0,1,0,.679V10.794a2.991,2.991,0,0,1,1.575.284,2.9,2.9,0,0,0,1.02.288,1.785,1.785,0,0,0,1.259-.4,5.309,5.309,0,0,0,1-1.135A8.572,8.572,0,0,0,5.9,7.974c.062-.156.19-.4.255-.559A4.5,4.5,0,0,1,5,6.623,3.126,3.126,0,0,1,4.141,4.881Z" transform="translate(0.039 3.63)" fill="#fff"/>
      <path id="Vector-4" data-name="Vector" d="M3,.714A3.3,3.3,0,0,1,1.779,2.846a2.485,2.485,0,0,1-1.755.607A2.119,2.119,0,0,1,.05,2.681,3.354,3.354,0,0,1,1.507.539,3.2,3.2,0,0,1,2.823.022C2.846.018,2.971,0,3.01,0A4.962,4.962,0,0,1,3,.714Z" fill="#fff"/>
    </g>
  </g>
</svg>
