<svg xmlns="http://www.w3.org/2000/svg" width="20" height="16" viewBox="0 0 20 16">
  <path id="Shape" d="M15.77,16A2.476,2.476,0,0,1,13.4,14.139H6.633A2.477,2.477,0,0,1,4.266,16,2.476,2.476,0,0,1,1.9,14.139H0V10.946H1.291v1.861H1.9a2.481,2.481,0,0,1,2.369-1.86,2.481,2.481,0,0,1,2.37,1.86h4.831V9.614H0V0H12.758V12.807H13.4a2.438,2.438,0,0,1,4.738,0h.571V7.78L15.484,2.667H14.048V1.333h2.137L20,7.383v6.756H18.136A2.477,2.477,0,0,1,15.77,16Zm.009-3.723h0a1.195,1.195,0,1,0,1.157,1.194,1.177,1.177,0,0,0-1.157-1.194Zm-11.5,0h0a1.2,1.2,0,0,0-.01,2.389,1.195,1.195,0,0,0,.013-2.389Zm2.747-6.8V8.281h4.443V5.473Zm-5.733,0V8.28H5.734V5.473ZM7.024,1.334V4.141h4.443V1.334Zm-5.733,0V4.14H5.734V1.334Z" transform="translate(0 0)" fill="#fff"/>
</svg>
