<svg xmlns="http://www.w3.org/2000/svg" xmlns:xlink="http://www.w3.org/1999/xlink" width="32.38" height="36.7" viewBox="0 0 32.38 36.7">
  <defs>
    <clipPath id="clip-path">
      <rect width="32.38" height="36.7" fill="none"/>
    </clipPath>
  </defs>
  <g id="Group_6" data-name="Group 6" transform="translate(0.35 0.35)">
    <g id="Group" transform="translate(-0.35 -0.35)" clip-path="url(#clip-path)">
      <g id="Group-2" data-name="Group" transform="translate(0.35 0.35)">
        <path id="Vector" d="M16.136,36h0a3.948,3.948,0,0,1-2.627-1h-.957v-.009h-.007c-.043,0-.085,0-.127,0-.06,0-.121,0-.181,0C5.49,35,0,28.954,0,21.523S5.489,8.045,12.236,8.043a11.2,11.2,0,0,1,4.5.955c0-.167.012-.334.023-.5l.007-.1h-.031V7.2a6,6,0,0,0-5.977-6V0a7.185,7.185,0,0,1,6.864,5.12A8.967,8.967,0,0,1,25.7,0a.6.6,0,0,1,.6.6,9.037,9.037,0,0,1-1.176,4.442,8.993,8.993,0,0,1-3.209,3.279,12.149,12.149,0,0,1,6.97,4.637,14.35,14.35,0,0,1,2.8,8.564,14.124,14.124,0,0,1-3.5,9.42,11.673,11.673,0,0,1-8.459,4.05V35h-.274a2.326,2.326,0,0,0-1.219.4A3.944,3.944,0,0,1,16.136,36Zm3.183-5.06h0l.813.879a12.268,12.268,0,0,1-2.515,1.81,11.522,11.522,0,0,1-2.451.978,2.747,2.747,0,0,0,2.44-.233,3.493,3.493,0,0,1,1.839-.576c6.088,0,11.039-5.507,11.039-12.277a12.929,12.929,0,0,0-3.142-8.563,10.5,10.5,0,0,0-7.6-3.7,8.879,8.879,0,0,1-1.866.31,12.163,12.163,0,0,1,2.26,1.652l-.814.88a10.368,10.368,0,0,0-7.081-2.858C6.149,9.245,1.2,14.753,1.2,21.523S6.149,33.8,12.237,33.8h.011a10.067,10.067,0,0,0,4.8-1.226,10.986,10.986,0,0,0,2.266-1.634ZM23.486,1.976h0l.851.85-5.38,5.4.025-.006c.153-.035.311-.071.463-.115V8.045l.085,0,.083,0a7.753,7.753,0,0,0,3.778-2.571,7.8,7.8,0,0,0,1.692-4.255A7.792,7.792,0,0,0,18.11,7.375l5.376-5.4Z" fill="#fff" stroke="#fff" stroke-width="0.7" stroke-dasharray="0 0"/>
      </g>
    </g>
  </g>
</svg>
