<svg xmlns="http://www.w3.org/2000/svg" width="45.763" height="36.4" viewBox="0 0 45.763 36.4">
  <g id="Group_7" data-name="Group 7" transform="translate(0.2 0.2)">
    <g id="Group">
      <path id="Vector" d="M18.257,36h0a2.743,2.743,0,0,1-2.622-2.957,6.732,6.732,0,0,1,1.008-3.031c.055-.107.11-.215.165-.325A21.079,21.079,0,0,1,8.57,22.149l-5.506,3.41a.828.828,0,0,1-.109.057,2.2,2.2,0,0,1-.872.186A2.162,2.162,0,0,1,0,23.483c0-1.562,1.777-4.28,2.541-5.377C1.777,17.009,0,14.287,0,12.729A2.161,2.161,0,0,1,2.081,10.41a2.2,2.2,0,0,1,.874.185.821.821,0,0,1,.108.057l5.508,3.411a21.2,21.2,0,0,1,8.344-7.592c-.074-.144-.151-.288-.218-.415l0-.005a6.683,6.683,0,0,1-1.06-3.094A2.743,2.743,0,0,1,18.257,0a2.782,2.782,0,0,1,1.107.238c.016.006.032.014.048.022l8.06,4.116a20.313,20.313,0,0,1,10.8,4.091A21.463,21.463,0,0,1,45.3,17.795a.85.85,0,0,1,0,.622A20.916,20.916,0,0,1,26.931,31.87l-7.516,3.869-.051.023A2.78,2.78,0,0,1,18.257,36ZM8.848,20.133a.878.878,0,0,1,.2.025.848.848,0,0,1,.52.4,19.325,19.325,0,0,0,8.711,7.965.852.852,0,0,1,.413,1.137c-.189.4-.381.781-.561,1.133a5.474,5.474,0,0,0-.822,2.254c0,.731.4,1.261.942,1.261a1.11,1.11,0,0,0,.423-.091l7.652-3.938a.841.841,0,0,1,.35-.092,18.465,18.465,0,0,0,5.5-1.052,17.485,17.485,0,0,1-3.723-11.206,19.628,19.628,0,0,1,.923-6.035.839.839,0,0,1,.8-.585.83.83,0,0,1,.26.042.851.851,0,0,1,.539,1.069,17.894,17.894,0,0,0-.842,5.51c0,4.156,1.383,8.091,3.7,10.527a19.487,19.487,0,0,0,9.779-10.346,19.782,19.782,0,0,0-6.348-8.281A18.991,18.991,0,0,0,33.6,7.649a11.775,11.775,0,0,0-1.338,1.859.842.842,0,0,1-.724.418.833.833,0,0,1-.427-.119.854.854,0,0,1-.3-1.162A13.806,13.806,0,0,1,31.945,7a18.511,18.511,0,0,0-4.753-.941.829.829,0,0,1-.326-.089L18.68,1.787a1.112,1.112,0,0,0-.424-.091c-.546,0-.942.53-.942,1.261a5.425,5.425,0,0,0,.865,2.3l.01.02c.192.363.408.773.621,1.221A.852.852,0,0,1,18.4,7.642a19.579,19.579,0,0,0-8.824,8.016.843.843,0,0,1-.52.394.832.832,0,0,1-.644-.1L2.247,12.137a.5.5,0,0,0-.165-.031c-.237,0-.4.256-.4.622,0,.94,1.5,3.415,2.571,4.873a.852.852,0,0,1,0,1.01c-1.068,1.457-2.571,3.931-2.571,4.872,0,.366.166.622.4.622a.5.5,0,0,0,.165-.031l6.161-3.816A.839.839,0,0,1,8.848,20.133Z" fill="#16162e" stroke="#16162e" stroke-width="0.4" stroke-dasharray="0 0"/>
      <path id="Vector-2" data-name="Vector" d="M2.5,5.051A2.526,2.526,0,0,1,2.5,0a2.526,2.526,0,0,1,0,5.051ZM2.5,1.7a.829.829,0,1,0,.821.829A.826.826,0,0,0,2.5,1.7Z" transform="translate(33.621 13.02)" fill="#16162e" stroke="#16162e" stroke-width="0.4" stroke-dasharray="0 0"/>
    </g>
  </g>
</svg>
