<svg id="Group_3832" data-name="Group 3832" xmlns="http://www.w3.org/2000/svg" xmlns:xlink="http://www.w3.org/1999/xlink" width="276.946" height="301.84" viewBox="0 0 276.946 301.84">
  <defs>
    <clipPath id="clip-path">
      <rect id="Rectangle_2396" data-name="Rectangle 2396" width="210" height="210" rx="105" fill="#e8f7eb"/>
    </clipPath>
  </defs>
  <g id="Group_3831" data-name="Group 3831" transform="translate(0 7)">
    <path id="Vector" d="M.834,0a.829.829,0,0,0,.834-.78.829.829,0,0,0-.834-.78A.829.829,0,0,0,0-.78.829.829,0,0,0,.834,0Z" transform="translate(92.871 1.561)" fill="#40aa54"/>
    <path id="Vector-2" data-name="Vector" d="M1.025-.015c.5-.1.945-.52.945-.884A.966.966,0,0,0,.413-1.68C-.366-.951.024.141,1.025-.015Z" transform="translate(13.878 4.072)" fill="#40aa54"/>
    <path id="Vector-3" data-name="Vector" d="M1-.022a1.131,1.131,0,0,0,.945-.936A1.131,1.131,0,0,0,1-1.894C.278-2,0-1.738,0-.958S.278.082,1-.022Z" transform="translate(179.625 5.119)" fill="#40aa54"/>
    <path id="Vector-4" data-name="Vector" d="M1-.022a1.131,1.131,0,0,0,.945-.936A1.131,1.131,0,0,0,1-1.894C.278-2,0-1.738,0-.958S.278.082,1-.022Z" transform="translate(116.228 5.64)" fill="#40aa54"/>
    <path id="Vector-5" data-name="Vector" d="M1.315,0a.66.66,0,0,0,.667-.884C1.76-1.925.648-2.341.147-1.612-.3-.832.314,0,1.315,0Z" transform="translate(252.604 6.242)" fill="#40aa54"/>
    <path id="Vector-6" data-name="Vector" d="M1.3-.122a.889.889,0,0,0,.556-1.144c-.445-.988-1.279-.988-1.724,0C-.258-.226.243.242,1.3-.122Z" transform="translate(262 31.008)" fill="#40aa54"/>
    <path id="Vector-7" data-name="Vector" d="M.744,0a.819.819,0,0,0,.723-.52c.111-.312-.222-.572-.723-.572S-.09-.832.021-.52A.819.819,0,0,0,.744,0Z" transform="translate(17.885 5.773)" fill="#40aa54"/>
    <path id="Vector-8" data-name="Vector" d="M.834,0a.829.829,0,0,0,.834-.78.829.829,0,0,0-.834-.78A.829.829,0,0,0,0-.78.829.829,0,0,0,.834,0Z" transform="translate(141.81 8.842)" fill="#40aa54"/>
    <path id="Vector-9" data-name="Vector" d="M1.637-.253a.986.986,0,0,0-.612-1.716,1.321,1.321,0,0,0-.89.572C-.42-.513.859.475,1.637-.253Z" transform="translate(96.85 10.292)" fill="#40aa54"/>
    <path id="Vector-10" data-name="Vector" d="M1.315,0a.66.66,0,0,0,.667-.884C1.76-1.925.648-2.341.147-1.612-.3-.832.314,0,1.315,0Z" transform="translate(260.389 13.003)" fill="#40aa54"/>
    <path id="Vector-11" data-name="Vector" d="M1.891-.174C2.614-.642,2-2.047,1.113-2.047a1.318,1.318,0,0,0-1.057.78C-.278-.382.946.346,1.891-.174Z" transform="translate(79.246 13.49)" fill="#40aa54"/>
    <path id="Vector-12" data-name="Vector" d="M.834,0a.829.829,0,0,0,.834-.78.829.829,0,0,0-.834-.78A.829.829,0,0,0,0-.78.829.829,0,0,0,.834,0Z" transform="translate(30.586 14.044)" fill="#40aa54"/>
    <path id="Vector-13" data-name="Vector" d="M1.564-.065a1.364,1.364,0,0,0,.89-1.092A1.26,1.26,0,0,0,.285-1.833,1.126,1.126,0,0,0,1.564-.065Z" transform="translate(108.209 15.513)" fill="#40aa54"/>
    <path id="Vector-14" data-name="Vector" d="M.152,0a3.594,3.594,0,0,0,1.39-.52c.445-.26.612-.52.278-.52A3.941,3.941,0,0,0,.43-.52C-.015-.26-.126,0,.152,0Z" transform="translate(198.658 14.564)" fill="#40aa54"/>
    <path id="Vector-15" data-name="Vector" d="M.69,0C.8,0,.913-.26.913-.52A.558.558,0,0,0,.3-1.04c-.278,0-.389.208-.222.52C.245-.26.523,0,.69,0Z" transform="translate(244.333 15.604)" fill="#40aa54"/>
    <path id="Vector-16" data-name="Vector" d="M1.619,0A1.976,1.976,0,0,0,3.732-2.549c-.445-1.04-3.114-1.092-3.5-.1C-.383-1.2.284,0,1.619,0Z" transform="translate(154.592 20.026)" fill="#40aa54"/>
    <path id="Vector-17" data-name="Vector" d="M1.112,0c.612,0,1.112-.364,1.112-.78s-.5-.78-1.112-.78S0-1.2,0-.78.5,0,1.112,0Z" transform="translate(62.284 21.326)" fill="#40aa54"/>
    <path id="Vector-18" data-name="Vector" d="M.3-.222a.55.55,0,0,0,.945-.1.912.912,0,0,0-.167-1.144.55.55,0,0,0-.945.1A.912.912,0,0,0,.3-.222Z" transform="translate(22.945 24.773)" fill="#40aa54"/>
    <path id="Vector-19" data-name="Vector" d="M.345-.235a1,1,0,0,0-.056-.988c-.167-.208-.334.1-.278.676C.011.025.178.181.345-.235Z" transform="translate(73.451 25.827)" fill="#40aa54"/>
    <path id="Vector-20" data-name="Vector" d="M1.215,0c.834,0,1-1.352.222-1.768a.988.988,0,0,0-1.112.416C-.342-.624.047,0,1.215,0Z" transform="translate(275.006 27.567)" fill="#40aa54"/>
    <path id="Vector-21" data-name="Vector" d="M.833,0a.829.829,0,0,0,.834-.78C1.667-1.612,1-1.821.388-1.2-.279-.624-.057,0,.833,0Z" transform="translate(31.7 29.128)" fill="#40aa54"/>
    <path id="Vector-22" data-name="Vector" d="M.833,0a.829.829,0,0,0,.834-.78C1.667-1.612,1-1.821.388-1.2-.279-.624-.057,0,.833,0Z" transform="translate(17.796 29.648)" fill="#40aa54"/>
    <path id="Vector-23" data-name="Vector" d="M1.334,0A1.205,1.205,0,0,0,2.613-1.092,1.277,1.277,0,0,0,.556-2.341C-.5-1.768.055,0,1.334,0Z" transform="translate(177.455 32.509)" fill="#40aa54"/>
    <path id="Vector-24" data-name="Vector" d="M1-.022a1.131,1.131,0,0,0,.945-.936A1.131,1.131,0,0,0,1-1.894C.278-2,0-1.738,0-.958S.278.082,1-.022Z" transform="translate(66.179 32.167)" fill="#40aa54"/>
    <path id="Vector-25" data-name="Vector" d="M1.47-.814A.673.673,0,0,0,.747-1.7c-.556,0-.834.312-.723.832C.247.227,1.248.331,1.47-.814Z" transform="translate(191.945 33.427)" fill="#40aa54"/>
    <path id="Vector-26" data-name="Vector" d="M1.557-.794c.111-.364-.167-.624-.667-.624A.851.851,0,0,0,0-.585C0,.3,1.223.143,1.557-.794Z" transform="translate(37.26 34.188)" fill="#40aa54"/>
    <path id="Vector-27" data-name="Vector" d="M.834,0a.829.829,0,0,0,.834-.78.829.829,0,0,0-.834-.78A.829.829,0,0,0,0-.78.829.829,0,0,0,.834,0Z" transform="translate(10.011 34.85)" fill="#40aa54"/>
    <path id="Vector-28" data-name="Vector" d="M.557-.5c1.112,1.04,2.781.364,2.558-1.04C2.893-2.9,1.447-3.21.446-2.117-.166-1.441-.166-1.181.557-.5Z" transform="translate(181.959 37.227)" fill="#40aa54"/>
    <path id="Vector-29" data-name="Vector" d="M1.541,0c.834,0,1.112-.312.945-1.144-.222-1.4-1.168-1.716-2.058-.728S.095,0,1.541,0Z" transform="translate(235.974 36.93)" fill="#40aa54"/>
    <path id="Vector-30" data-name="Vector" d="M.834,0c.445,0,.834-.26.834-.52,0-.312-.389-.52-.834-.52S0-.832,0-.52C0-.26.389,0,.834,0Z" transform="translate(68.958 37.45)" fill="#40aa54"/>
    <path id="Vector-31" data-name="Vector" d="M.7-.624c.89.832,1,.832,1.891,0,.834-.78.89-.988.111-1.664-.723-.676-.945-.676-1.891-.052C-.25-1.612-.25-1.508.7-.624Z" transform="translate(110.692 39.479)" fill="#40aa54"/>
    <path id="Vector-32" data-name="Vector" d="M.744,0a.819.819,0,0,0,.723-.52c.111-.312-.222-.572-.723-.572S-.09-.832.021-.52A.819.819,0,0,0,.744,0Z" transform="translate(24.557 38.542)" fill="#40aa54"/>
    <path id="Vector-33" data-name="Vector" d="M.947-.079C2.115.337,3.617-.964,3.172-2.056A2.006,2.006,0,0,0,.391-2.524,1.553,1.553,0,0,0,.947-.079Z" transform="translate(137.358 42.939)" fill="#40aa54"/>
    <path id="Vector-34" data-name="Vector" d="M.69,0C.8,0,.913-.26.913-.52A.558.558,0,0,0,.3-1.04c-.278,0-.389.208-.222.52C.245-.26.523,0,.69,0Z" transform="translate(161.473 41.612)" fill="#40aa54"/>
    <path id="Vector-35" data-name="Vector" d="M.556,0a.539.539,0,0,0,.556-.52.509.509,0,0,0-.556-.52A.541.541,0,0,0,0-.52.58.58,0,0,0,.556,0Z" transform="translate(147.371 43.172)" fill="#40aa54"/>
    <path id="Vector-36" data-name="Vector" d="M1.854-.161c2,.468,3.17-.1,2.947-1.456C4.691-2.5,4.246-2.866,2.967-2.97A5.446,5.446,0,0,0,.52-2.606C-.593-1.93.186-.577,1.854-.161Z" transform="translate(176.936 50.408)" fill="#40aa54"/>
    <path id="Vector-37" data-name="Vector" d="M.612,0C.89,0,1-.26.834-.52a.919.919,0,0,0-.612-.52C.111-1.04,0-.832,0-.52A.594.594,0,0,0,.612,0Z" transform="translate(94.54 52.535)" fill="#40aa54"/>
    <path id="Vector-38" data-name="Vector" d="M.612,0C.89,0,1-.26.834-.52a.919.919,0,0,0-.612-.52C.111-1.04,0-.832,0-.52A.594.594,0,0,0,.612,0Z" transform="translate(122.346 52.535)" fill="#40aa54"/>
    <path id="Vector-39" data-name="Vector" d="M.556,0a.5.5,0,0,0,.556-.468A.984.984,0,0,0,.556-1.3C.278-1.456,0-1.248,0-.832,0-.364.278,0,.556,0Z" transform="translate(63.954 54.615)" fill="#40aa54"/>
    <path id="Vector-40" data-name="Vector" d="M1.637-.253a.986.986,0,0,0-.612-1.716,1.321,1.321,0,0,0-.89.572C-.42-.513.859.475,1.637-.253Z" transform="translate(5.091 57.105)" fill="#40aa54"/>
    <path id="Vector-41" data-name="Vector" d="M.556,0a.539.539,0,0,0,.556-.52.509.509,0,0,0-.556-.52A.541.541,0,0,0,0-.52.58.58,0,0,0,.556,0Z" transform="translate(116.783 58.257)" fill="#40aa54"/>
    <path id="Vector-42" data-name="Vector" d="M.612,0C.89,0,1-.26.834-.52a.919.919,0,0,0-.612-.52C.111-1.04,0-.832,0-.52A.594.594,0,0,0,.612,0Z" transform="translate(103.436 59.297)" fill="#40aa54"/>
    <path id="Vector-43" data-name="Vector" d="M.285-.111a.589.589,0,0,0,.834-.156.511.511,0,0,0-.167-.78.589.589,0,0,0-.834.156A.511.511,0,0,0,.285-.111Z" transform="translate(219.878 60.656)" fill="#40aa54"/>
    <path id="Vector-44" data-name="Vector" d="M1.739-.025c.945-.1,1.279-.52,1.279-1.456S2.684-2.833,1.739-2.937a1.391,1.391,0,0,0-1.557.624C-.375-.961.4.184,1.739-.025Z" transform="translate(223.598 63.378)" fill="#40aa54"/>
    <path id="Vector-45" data-name="Vector" d="M2.268-.022c.89-.1,1.168-.52,1.168-1.716,0-1.3-.222-1.612-1.5-1.716-1.057-.1-1.557.1-1.835.936A1.916,1.916,0,0,0,2.268-.022Z" transform="translate(178.134 67.017)" fill="#40aa54"/>
    <path id="Vector-46" data-name="Vector" d="M1.655-.264C2.378-.94,1.933-2.5,1.043-2.5.71-2.5.32-2.137.1-1.669-.347-.576.821.516,1.655-.264Z" transform="translate(202.494 65.958)" fill="#40aa54"/>
    <path id="Vector-47" data-name="Vector" d="M.612,0C.89,0,1-.26.834-.52a.919.919,0,0,0-.612-.52C.111-1.04,0-.832,0-.52A.594.594,0,0,0,.612,0Z" transform="translate(250.809 65.018)" fill="#40aa54"/>
    <path id="Vector-48" data-name="Vector" d="M.931-.1c1.335.52,2.836-1.04,2.058-2.133C2.321-3.224,1.71-3.484.709-3.068-.348-2.7-.181-.467.931-.1Z" transform="translate(122.914 67.93)" fill="#40aa54"/>
    <path id="Vector-49" data-name="Vector" d="M.338-.4c.89.832,2.614.26,2.614-.884C2.952-2.632.616-3.048.116-1.8A1.281,1.281,0,0,0,.338-.4Z" transform="translate(90.196 67.598)" fill="#40aa54"/>
    <path id="Vector-50" data-name="Vector" d="M1-.023C2.169-.231,2.058-1.167.89-1.375.334-1.479,0-1.219,0-.7S.389.081,1-.023Z" transform="translate(152.376 66.497)" fill="#40aa54"/>
    <path id="Vector-51" data-name="Vector" d="M.3-.222a.55.55,0,0,0,.945-.1.912.912,0,0,0-.167-1.144.55.55,0,0,0-.945.1A.912.912,0,0,0,.3-.222Z" transform="translate(44.079 71.067)" fill="#40aa54"/>
    <path id="Vector-52" data-name="Vector" d="M.834,0c.445,0,.834-.26.834-.52,0-.312-.389-.52-.834-.52S0-.832,0-.52C0-.26.389,0,.834,0Z" transform="translate(114.562 70.22)" fill="#40aa54"/>
    <path id="Vector-53" data-name="Vector" d="M1.113-.393C1.113-.6.835-.861.5-1.017c-.389-.1-.612.1-.445.416C.278.075,1.057.231,1.113-.393Z" transform="translate(113.501 72.85)" fill="#40aa54"/>
    <path id="Vector-54" data-name="Vector" d="M.834,0a.829.829,0,0,0,.834-.78.829.829,0,0,0-.834-.78A.829.829,0,0,0,0-.78.829.829,0,0,0,.834,0Z" transform="translate(172.394 74.38)" fill="#40aa54"/>
    <path id="Vector-55" data-name="Vector" d="M.947-.1C2.115.37,3.505-.93,3-2.023a1.783,1.783,0,0,0-2.614-.52A1.553,1.553,0,0,0,.947-.1Z" transform="translate(87.864 76.248)" fill="#40aa54"/>
    <path id="Vector-56" data-name="Vector" d="M1.315,0c.445,0,.779-.468.779-1.04A1.036,1.036,0,0,0,.147-1.56C-.3-.832.314,0,1.315,0Z" transform="translate(147.5 76.461)" fill="#40aa54"/>
    <path id="Vector-57" data-name="Vector" d="M.612,0C.89,0,1-.26.834-.52a.919.919,0,0,0-.612-.52C.111-1.04,0-.832,0-.52A.594.594,0,0,0,.612,0Z" transform="translate(87.866 79.063)" fill="#40aa54"/>
    <path id="Vector-58" data-name="Vector" d="M0-.678C0,.1,1.446.258,1.891-.47c.389-.572-1-1.716-1.5-1.248A1.414,1.414,0,0,0,0-.678Z" transform="translate(136.805 80.104)" fill="#40aa54"/>
    <path id="Vector-59" data-name="Vector" d="M1-.023C2.169-.231,2.058-1.167.89-1.375.334-1.479,0-1.219,0-.7S.389.081,1-.023Z" transform="translate(187.411 80.542)" fill="#40aa54"/>
    <path id="Vector-60" data-name="Vector" d="M1.47-.814A.673.673,0,0,0,.747-1.7c-.556,0-.834.312-.723.832C.247.227,1.248.331,1.47-.814Z" transform="translate(164.141 81.8)" fill="#40aa54"/>
    <path id="Vector-61" data-name="Vector" d="M2.391-.284a.911.911,0,0,0,.167-1.04C2-2.157,0-2,0-1.169,0-.232,1.668.392,2.391-.284Z" transform="translate(0 83.039)" fill="#40aa54"/>
    <path id="Vector-62" data-name="Vector" d="M.894-.266C2.062.15,2.007.15,3.008-.786a1.27,1.27,0,0,0,.334-1.821A2.084,2.084,0,0,0,.394-3.231C-.329-2.607,0-.578.894-.266Z" transform="translate(110.107 86.299)" fill="#40aa54"/>
    <path id="Vector-63" data-name="Vector" d="M.556,0a.539.539,0,0,0,.556-.52.509.509,0,0,0-.556-.52A.541.541,0,0,0,0-.52.58.58,0,0,0,.556,0Z" transform="translate(17.796 84.264)" fill="#40aa54"/>
    <path id="Vector-64" data-name="Vector" d="M1.3-.122a.889.889,0,0,0,.556-1.144c-.445-.988-1.279-.988-1.724,0C-.258-.226.243.242,1.3-.122Z" transform="translate(186.332 85.271)" fill="#40aa54"/>
    <path id="Vector-65" data-name="Vector" d="M.945-.072c.779-.468.612-.78-.389-.78-.445,0-.667.26-.5.52A.7.7,0,0,0,.945-.072Z" transform="translate(94.204 87.716)" fill="#40aa54"/>
    <path id="Vector-66" data-name="Vector" d="M.778,0c.834-.052.667-1.248-.167-1.508-.5-.156-.723.1-.556.624A.941.941,0,0,0,.778,0Z" transform="translate(120.177 88.997)" fill="#40aa54"/>
    <path id="Vector-67" data-name="Vector" d="M1.739-.025c.945-.1,1.279-.52,1.279-1.456S2.684-2.833,1.739-2.937a1.391,1.391,0,0,0-1.557.624C-.375-.961.4.184,1.739-.025Z" transform="translate(237.503 91.467)" fill="#40aa54"/>
    <path id="Vector-68" data-name="Vector" d="M1.778,0A1.842,1.842,0,0,0,3.446-.832c.445-1.144.445-1.144-.723-1.716a1.775,1.775,0,0,0-2,.156C-.613-1.508,0,0,1.778,0Z" transform="translate(29.032 92.586)" fill="#40aa54"/>
    <path id="Vector-69" data-name="Vector" d="M.043-1.248C.154-.26.544,0,1.878,0,3.269,0,3.6-.208,3.713-1.4A1.84,1.84,0,0,0,.766-3.225,1.985,1.985,0,0,0,.043-1.248Z" transform="translate(212.501 93.366)" fill="#40aa54"/>
    <path id="Vector-70" data-name="Vector" d="M1.329-.075C2.442.341,3.943-1.063,3.5-2.1A1.763,1.763,0,0,0,.662-2.832C-.45-2.052-.117-.6,1.329-.075Z" transform="translate(232.572 95.625)" fill="#40aa54"/>
    <path id="Vector-71" data-name="Vector" d="M.355-.316c.5.468.779.416,1.168-.156.5-.78.222-1.56-.556-1.56a1.321,1.321,0,0,0-.89.572A1.037,1.037,0,0,0,.355-.316Z" transform="translate(116.93 95.658)" fill="#40aa54"/>
    <path id="Vector-72" data-name="Vector" d="M1.277-.743C3.446.3,5.059.245,5.671-.9c1.168-2.029-.945-3.433-3.615-2.393C-.447-2.3-.613-1.679,1.277-.743Z" transform="translate(112.114 100.352)" fill="#40aa54"/>
    <path id="Vector-73" data-name="Vector" d="M.612,0C.89,0,1-.26.834-.52a.919.919,0,0,0-.612-.52C.111-1.04,0-.832,0-.52A.594.594,0,0,0,.612,0Z" transform="translate(61.173 97.788)" fill="#40aa54"/>
    <path id="Vector-74" data-name="Vector" d="M1.722-.432C3.557.5,5.114-.12,5.392-1.94,5.782-4.333,2.111-6.153.5-4.385-.5-3.188.054-1.316,1.722-.432Z" transform="translate(134.637 102.38)" fill="#40aa54"/>
    <path id="Vector-75" data-name="Vector" d="M.285-.111a.589.589,0,0,0,.834-.156.511.511,0,0,0-.167-.78.589.589,0,0,0-.834.156A.511.511,0,0,0,.285-.111Z" transform="translate(86.411 99.147)" fill="#40aa54"/>
    <path id="Vector-76" data-name="Vector" d="M1.614-.072C2.894-.54,2.782-2.516,1.448-2.516A1.573,1.573,0,0,0,.113-1.84,1.268,1.268,0,0,0,1.614-.072Z" transform="translate(159.323 100.304)" fill="#40aa54"/>
    <path id="Vector-77" data-name="Vector" d="M0-1.909C0-.764.334-.348,1.39-.088,3.782.484,5.45-1.857,3.782-3.417,3.059-4.093,1-4.249.389-3.677A3.015,3.015,0,0,0,0-1.909Z" transform="translate(206.317 104.43)" fill="#40aa54"/>
    <path id="Vector-78" data-name="Vector" d="M.3-.32c.779.728,2.5.1,2.224-.78A1.538,1.538,0,0,0,.133-1.464.9.9,0,0,0,.3-.32Z" transform="translate(170.869 102.893)" fill="#40aa54"/>
    <path id="Vector-79" data-name="Vector" d="M3.255-.189c2.169-.728,1.335-3.849-1-3.849A2.361,2.361,0,0,0,.307-3.05C-.749-1.177,1.086.591,3.255-.189Z" transform="translate(197.113 109.628)" fill="#40aa54"/>
    <path id="Vector-80" data-name="Vector" d="M.831,0c.445,0,.834-.208.834-.468,0-.676-.89-1.144-1.335-.728C-.281-.624,0,0,.831,0Z" transform="translate(101.771 109.23)" fill="#40aa54"/>
    <path id="Vector-81" data-name="Vector" d="M1.357,0c1,0,1.39-.26,1.39-1.04,0-1.144-1.112-1.352-2.113-.416C-.422-.468-.144,0,1.357,0Z" transform="translate(16.16 110.271)" fill="#40aa54"/>
    <path id="Vector-82" data-name="Vector" d="M1.315,0a.66.66,0,0,0,.667-.884C1.76-1.925.648-2.341.147-1.612-.3-.832.314,0,1.315,0Z" transform="translate(28.493 111.312)" fill="#40aa54"/>
    <path id="Vector-83" data-name="Vector" d="M.454-.382c1,.884,2.447.1,2-1.04a1.419,1.419,0,0,0-2.391-.26A1.294,1.294,0,0,0,.454-.382Z" transform="translate(149.751 111.485)" fill="#40aa54"/>
    <path id="Vector-84" data-name="Vector" d="M.355-.356A1.421,1.421,0,0,0,2.69-1.5C2.69-2.749.577-2.957.077-1.708A1.339,1.339,0,0,0,.355-.356Z" transform="translate(65.711 112.291)" fill="#40aa54"/>
    <path id="Vector-85" data-name="Vector" d="M2.447,0A2.814,2.814,0,0,0,4.393-1.248c1.279-1.768.278-3.433-1.946-3.433A2.325,2.325,0,0,0,.222-3.589C-.556-2.237.834,0,2.447,0Z" transform="translate(151.595 119.634)" fill="#40aa54"/>
    <path id="Vector-86" data-name="Vector" d="M.647-.121c1.279.468,2.224-.52,1.223-1.3-.612-.468-.945-.416-1.5.208S-.131-.381.647-.121Z" transform="translate(170.913 119.026)" fill="#40aa54"/>
    <path id="Vector-87" data-name="Vector" d="M.5-.316c.556.468.89.416,1.39-.156.5-.52.445-.832-.167-1.3-.556-.468-.89-.416-1.39.156C-.163-1.1-.107-.784.5-.316Z" transform="translate(36.422 120.418)" fill="#40aa54"/>
    <path id="Vector-88" data-name="Vector" d="M.3-.32c.779.728,2.5.1,2.224-.78A1.538,1.538,0,0,0,.133-1.464.9.9,0,0,0,.3-.32Z" transform="translate(156.41 122.138)" fill="#40aa54"/>
    <path id="Vector-89" data-name="Vector" d="M.3-.32c.779.728,2.5.1,2.224-.78A1.538,1.538,0,0,0,.133-1.464.9.9,0,0,0,.3-.32Z" transform="translate(134.723 122.659)" fill="#40aa54"/>
    <path id="Vector-90" data-name="Vector" d="M.778,0c.834-.052.667-1.248-.167-1.508-.5-.156-.723.1-.556.624A.941.941,0,0,0,.778,0Z" transform="translate(112.39 122.806)" fill="#40aa54"/>
    <path id="Vector-91" data-name="Vector" d="M2.795-.043a1.835,1.835,0,0,0,.667-3.381c-1.279-.884-1.613-.832-2.669.156C-.931-1.707.348.321,2.795-.043Z" transform="translate(223.654 126.334)" fill="#40aa54"/>
    <path id="Vector-92" data-name="Vector" d="M.856,0A.787.787,0,0,0,1.69-.728c0-.884-.779-1.456-1.335-.988A.961.961,0,0,0,.856,0Z" transform="translate(190.726 124.835)" fill="#40aa54"/>
    <path id="Vector-93" data-name="Vector" d="M1.979,0c1.5,0,1.668-.156,1.668-1.56,0-1.3-.222-1.56-1.557-1.716-.945-.1-1.613.1-1.835.624C-.413-1.04.255,0,1.979,0Z" transform="translate(247.438 127.176)" fill="#40aa54"/>
    <path id="Vector-94" data-name="Vector" d="M.945-.023c1.39-.26,1.557-1.456.222-1.456C.5-1.479,0-1.167,0-.647,0-.179.389.081.945-.023Z" transform="translate(25.582 125.794)" fill="#40aa54"/>
    <path id="Vector-95" data-name="Vector" d="M1.441-.023c.667-.1,1-.624,1-1.456,0-1.508-1.78-2.133-2.28-.832C-.338-1.063.385.185,1.441-.023Z" transform="translate(86.258 130.476)" fill="#40aa54"/>
    <path id="Vector-96" data-name="Vector" d="M.556,0a.539.539,0,0,0,.556-.52.509.509,0,0,0-.556-.52A.541.541,0,0,0,0-.52.58.58,0,0,0,.556,0Z" transform="translate(98.987 128.997)" fill="#40aa54"/>
    <path id="Vector-97" data-name="Vector" d="M1.9-.326c.667-.52.723-.832.222-1.352-.834-.936-1.557-.936-2,.1C-.385-.378.839.506,1.9-.326Z" transform="translate(56.218 134.004)" fill="#40aa54"/>
    <path id="Vector-98" data-name="Vector" d="M1.47-.814A.673.673,0,0,0,.747-1.7c-.556,0-.834.312-.723.832C.247.227,1.248.331,1.47-.814Z" transform="translate(129.105 135.375)" fill="#40aa54"/>
    <path id="Vector-99" data-name="Vector" d="M3.316-.29C5.207-1.227,4.373-3.931,2.2-3.931a2.544,2.544,0,0,0-1.557.624C-1.133-1.643,1.092.854,3.316-.29Z" transform="translate(173.527 142.29)" fill="#40aa54"/>
    <path id="Vector-100" data-name="Vector" d="M1.322-.164c.5-.156.723-.52.556-.832A.925.925,0,0,0,.21-.944C-.346-.164.265.252,1.322-.164Z" transform="translate(130.755 140.916)" fill="#40aa54"/>
    <path id="Vector-101" data-name="Vector" d="M0-2.081C0-1.508,1.613,0,2.224,0A4.515,4.515,0,0,0,4.449-1.873a6.771,6.771,0,0,0-.556-1.3c-.723-1.2-1.835-1.248-3-.156A2.433,2.433,0,0,0,0-2.081Z" transform="translate(123.457 144.08)" fill="#40aa54"/>
    <path id="Vector-102" data-name="Vector" d="M2.878-.088c1.78-.52,1.335-3.069-.556-3.277a2.992,2.992,0,0,0-1.835.208C-.9-1.857.932.484,2.878-.088Z" transform="translate(191.761 145.469)" fill="#40aa54"/>
    <path id="Vector-103" data-name="Vector" d="M2.375-.1c.945-.26,1.168-.676,1.057-1.716A1.683,1.683,0,0,0,.262-2.55,1.69,1.69,0,0,0,2.375-.1Z" transform="translate(115.466 147.046)" fill="#40aa54"/>
    <path id="Vector-104" data-name="Vector" d="M.612-.02A.848.848,0,0,0,1.223-.7a.848.848,0,0,0-.612-.676C.278-1.476,0-1.164,0-.7S.278.084.612-.02Z" transform="translate(233.011 145.557)" fill="#40aa54"/>
    <path id="Vector-105" data-name="Vector" d="M1.47-.814A.673.673,0,0,0,.747-1.7c-.556,0-.834.312-.723.832C.247.227,1.248.331,1.47-.814Z" transform="translate(192.5 148.379)" fill="#40aa54"/>
    <path id="Vector-106" data-name="Vector" d="M.451-1.356c-1.112,1.612,0,1.873,1.5.312,1.668-1.716,1.78-2.913.278-2.913-.612,0-1.112.364-1.112.78A4.032,4.032,0,0,1,.451-1.356Z" transform="translate(127.9 151.158)" fill="#40aa54"/>
    <path id="Vector-107" data-name="Vector" d="M1.315,0c.445,0,.779-.468.779-1.04A1.036,1.036,0,0,0,.147-1.56C-.3-.832.314,0,1.315,0Z" transform="translate(29.049 149.802)" fill="#40aa54"/>
    <path id="Vector-108" data-name="Vector" d="M.355-.126A1.147,1.147,0,0,0,2.023-.958c0-.624-1.5-.624-1.946,0A.611.611,0,0,0,.355-.126Z" transform="translate(160.921 151.229)" fill="#40aa54"/>
    <path id="Vector-109" data-name="Vector" d="M.3-.32c.779.728,2.5.1,2.224-.78A1.538,1.538,0,0,0,.133-1.464.9.9,0,0,0,.3-.32Z" transform="translate(50.193 155.948)" fill="#40aa54"/>
    <path id="Vector-110" data-name="Vector" d="M.3-1.06c1.39,2.133,4.783.728,3.5-1.4a2.027,2.027,0,0,0-3.392-.26A1.157,1.157,0,0,0,.3-1.06Z" transform="translate(151.904 160.641)" fill="#40aa54"/>
    <path id="Vector-111" data-name="Vector" d="M1.451,0a2.334,2.334,0,0,0,2.28-1.925c0-1.092-1.946-1.768-3.059-.988A1.608,1.608,0,0,0,1.451,0Z" transform="translate(120.281 162.286)" fill="#40aa54"/>
    <path id="Vector-112" data-name="Vector" d="M.89,0c.5,0,.779-.26.667-.624C1.223-1.56,0-1.716,0-.832A.851.851,0,0,0,.89,0Z" transform="translate(157.377 161.246)" fill="#40aa54"/>
    <path id="Vector-113" data-name="Vector" d="M1.739-.025c.945-.1,1.279-.52,1.279-1.456S2.684-2.833,1.739-2.937a1.391,1.391,0,0,0-1.557.624C-.375-.961.4.184,1.739-.025Z" transform="translate(230.273 162.727)" fill="#40aa54"/>
    <path id="Vector-114" data-name="Vector" d="M0-2.081C0-1.508,1.613,0,2.224,0S4.449-1.508,4.449-2.081,2.836-4.161,2.224-4.161A2.639,2.639,0,0,0,.89-3.329,2.433,2.433,0,0,0,0-2.081Z" transform="translate(180.183 164.366)" fill="#40aa54"/>
    <path id="Vector-115" data-name="Vector" d="M.556,0a.539.539,0,0,0,.556-.52.509.509,0,0,0-.556-.52A.541.541,0,0,0,0-.52.58.58,0,0,0,.556,0Z" transform="translate(252.475 164.366)" fill="#40aa54"/>
    <path id="Vector-116" data-name="Vector" d="M.834,0a.829.829,0,0,0,.834-.78.829.829,0,0,0-.834-.78A.829.829,0,0,0,0-.78.829.829,0,0,0,.834,0Z" transform="translate(185.741 166.967)" fill="#40aa54"/>
    <path id="Vector-117" data-name="Vector" d="M.556,0a.539.539,0,0,0,.556-.52.509.509,0,0,0-.556-.52A.541.541,0,0,0,0-.52.58.58,0,0,0,.556,0Z" transform="translate(243.577 169.567)" fill="#40aa54"/>
    <path id="Vector-118" data-name="Vector" d="M.355-.126A1.147,1.147,0,0,0,2.023-.958c0-.624-1.5-.624-1.946,0A.611.611,0,0,0,.355-.126Z" transform="translate(20.777 170.995)" fill="#40aa54"/>
    <path id="Vector-119" data-name="Vector" d="M1.315,0a.66.66,0,0,0,.667-.884C1.76-1.925.648-2.341.147-1.612-.3-.832.314,0,1.315,0Z" transform="translate(98.006 175.289)" fill="#40aa54"/>
    <path id="Vector-120" data-name="Vector" d="M1.024,0a1.141,1.141,0,0,0,1-.936c.111-.624-.167-.884-1-.884s-1.112.26-1,.884A1.141,1.141,0,0,0,1.024,0Z" transform="translate(62.372 180.231)" fill="#40aa54"/>
    <path id="Vector-121" data-name="Vector" d="M1.047-.024C2.1.34,6.33-3.509,6.33-4.81A2.009,2.009,0,0,0,4.495-6.474c-.056,0-1.168,1.04-2.5,2.289C-.288-1.9-.622-.648,1.047-.024Z" transform="translate(178.299 184.884)" fill="#40aa54"/>
    <path id="Vector-122" data-name="Vector" d="M.556,0a.539.539,0,0,0,.556-.52.509.509,0,0,0-.556-.52A.541.541,0,0,0,0-.52.58.58,0,0,0,.556,0Z" transform="translate(127.35 183.091)" fill="#40aa54"/>
    <path id="Vector-123" data-name="Vector" d="M.1-.155c.5.468,1.057-.208.779-.936-.222-.572-.334-.572-.667,0C-.014-.727-.07-.311.1-.155Z" transform="translate(134.15 186.731)" fill="#40aa54"/>
    <path id="Vector-124" data-name="Vector" d="M1.739-.025c.945-.1,1.279-.52,1.279-1.456S2.684-2.833,1.739-2.937a1.391,1.391,0,0,0-1.557.624C-.375-.961.4.184,1.739-.025Z" transform="translate(216.926 190.294)" fill="#40aa54"/>
    <path id="Vector-125" data-name="Vector" d="M1.315,0c.445,0,.779-.468.779-1.04A1.036,1.036,0,0,0,.147-1.56C-.3-.832.314,0,1.315,0Z" transform="translate(49.623 189.854)" fill="#40aa54"/>
    <path id="Vector-126" data-name="Vector" d="M1.077-.2C2.635.53,4.136-.875,3.358-2.331A2.084,2.084,0,0,0,.41-2.955C-.368-2.279.021-.719,1.077-.2Z" transform="translate(182.385 191.612)" fill="#40aa54"/>
    <path id="Vector-127" data-name="Vector" d="M.556,0a.539.539,0,0,0,.556-.52.509.509,0,0,0-.556-.52A.541.541,0,0,0,0-.52.58.58,0,0,0,.556,0Z" transform="translate(196.862 189.854)" fill="#40aa54"/>
    <path id="Vector-128" data-name="Vector" d="M1.693-.02c.834-.1,1.168-.52,1.168-1.456A1.337,1.337,0,0,0,.414-2.361,1.382,1.382,0,0,0,1.693-.02Z" transform="translate(124.767 196.532)" fill="#40aa54"/>
    <path id="Vector-129" data-name="Vector" d="M1.025,0c.667,0,.667-1.4,0-1.821a.7.7,0,0,0-.89.26A1.061,1.061,0,0,0,1.025,0Z" transform="translate(11.266 202.857)" fill="#40aa54"/>
    <path id="Vector-130" data-name="Vector" d="M.556,0a.539.539,0,0,0,.556-.52.509.509,0,0,0-.556-.52A.541.541,0,0,0,0-.52.58.58,0,0,0,.556,0Z" transform="translate(230.229 202.857)" fill="#40aa54"/>
    <path id="Vector-131" data-name="Vector" d="M1.613,0A1.355,1.355,0,0,0,2.725-2.341c-.89-.988-2.169-.988-2.558,0A1.579,1.579,0,0,0,1.613,0Z" transform="translate(221.388 216.901)" fill="#40aa54"/>
    <path id="Vector-132" data-name="Vector" d="M.723,0c1.057,0,1.5-.52,1.112-1.352A.933.933,0,0,0,0-1.04C0-.468.334,0,.723,0Z" transform="translate(80.079 216.381)" fill="#40aa54"/>
    <path id="Vector-133" data-name="Vector" d="M1.847,0C3.126,0,3.293-.208,3.126-1.4,2.96-3.069,1.514-3.537.457-2.393-.544-1.248.179,0,1.847,0Z" transform="translate(204.189 217.941)" fill="#40aa54"/>
    <path id="Vector-134" data-name="Vector" d="M.556-.052A.611.611,0,0,0,.834-.884C.334-1.612,0-1.456,0-.52,0-.1.278.1.556-.052Z" transform="translate(150.705 218.253)" fill="#40aa54"/>
    <path id="Vector-135" data-name="Vector" d="M.5,0a1.2,1.2,0,0,0,.89-.52c.167-.312-.056-.52-.5-.52-.5,0-.89.208-.89.52A.528.528,0,0,0,.5,0Z" transform="translate(190.744 220.542)" fill="#40aa54"/>
    <path id="Vector-136" data-name="Vector" d="M.556,0a.539.539,0,0,0,.556-.52.509.509,0,0,0-.556-.52A.541.541,0,0,0,0-.52.58.58,0,0,0,.556,0Z" transform="translate(215.216 222.103)" fill="#40aa54"/>
    <path id="Vector-137" data-name="Vector" d="M.556,0a.539.539,0,0,0,.556-.52.509.509,0,0,0-.556-.52A.541.541,0,0,0,0-.52.58.58,0,0,0,.556,0Z" transform="translate(167.945 232.505)" fill="#40aa54"/>
    <path id="Vector-138" data-name="Vector" d="M.557-.5a1.805,1.805,0,0,0,1.724.416,1.328,1.328,0,0,0,.056-2.5c-1.168-.416-1.112-.416-1.891.52C-.166-1.434-.166-1.122.557-.5Z" transform="translate(125.794 235.396)" fill="#40aa54"/>
    <path id="Vector-139" data-name="Vector" d="M.744,0a.819.819,0,0,0,.723-.52c.111-.312-.222-.572-.723-.572S-.09-.832.021-.52A.819.819,0,0,0,.744,0Z" transform="translate(234.214 241.92)" fill="#40aa54"/>
    <path id="Vector-140" data-name="Vector" d="M1.581-.585a.851.851,0,0,0-.89-.832c-.5,0-.779.26-.667.624C.358.143,1.581.3,1.581-.585Z" transform="translate(32.34 242.766)" fill="#40aa54"/>
    <path id="Vector-141" data-name="Vector" d="M1.474-.135c.612-.364.222-1.3-.556-1.3a1.244,1.244,0,0,0-.834.468C-.306-.343.751.281,1.474-.135Z" transform="translate(5.755 244.864)" fill="#40aa54"/>
    <path id="Vector-142" data-name="Vector" d="M.947-.079C2.115.337,3.617-.964,3.172-2.056A2.006,2.006,0,0,0,.391-2.524,1.553,1.553,0,0,0,.947-.079Z" transform="translate(144.032 246.317)" fill="#40aa54"/>
    <path id="Vector-143" data-name="Vector" d="M.945-.072c.779-.468.612-.78-.389-.78-.445,0-.667.26-.5.52A.7.7,0,0,0,.945-.072Z" transform="translate(150.373 266.126)" fill="#40aa54"/>
    <path id="Vector-144" data-name="Vector" d="M1.584,0c1.279,0,1.78-.676,1.335-1.768C2.474-2.809.528-2.861.138-1.821-.307-.78.361,0,1.584,0Z" transform="translate(116.313 272.037)" fill="#40aa54"/>
    <path id="Vector-145" data-name="Vector" d="M.612,0C.89,0,1-.26.834-.52a.919.919,0,0,0-.612-.52C.111-1.04,0-.832,0-.52A.594.594,0,0,0,.612,0Z" transform="translate(110.109 275.158)" fill="#40aa54"/>
    <path id="Vector-146" data-name="Vector" d="M1.655-.264C2.378-.94,1.933-2.5,1.043-2.5.71-2.5.32-2.137.1-1.669-.347-.576.821.516,1.655-.264Z" transform="translate(67.914 277.658)" fill="#40aa54"/>
    <path id="Vector-147" data-name="Vector" d="M1.087-.312c.389-.364.389-.676.056-.884A.739.739,0,0,0,.2-.937C-.359-.156.364.364,1.087-.312Z" transform="translate(198.055 291.75)" fill="#40aa54"/>
    <path id="Vector-148" data-name="Vector" d="M1.978-.021c1.112-.1,1.446-.416,1.446-1.456a1.666,1.666,0,0,0-3-.884C-.58-1.166.31.187,1.978-.021Z" transform="translate(185.378 294.84)" fill="#40aa54"/>
  </g>
  <rect id="Rectangle_2395" data-name="Rectangle 2395" width="210" height="210" rx="105" transform="translate(27.999 27)" fill="#e8f7eb"/>
  <g id="Mask_Group" data-name="Mask Group" transform="translate(28 27)">
    <rect id="Rectangle_2396-2" data-name="Rectangle 2396" width="210" height="210" rx="105" fill="#e8f7eb"/>
    <g id="Mask_Group-2" data-name="Mask Group" clip-path="url(#clip-path)">
      <g id="OBJECTS" transform="translate(-21.711 23.35)">
        <g id="Group" transform="translate(81.711 143.65)">
          <path id="Vector-149" data-name="Vector" d="M7.6,0q.4,2.784.53,5.567c.8,11.62-2.563,22.269-8.13,32.3H1.591C2.342,36.673,3,35.524,3.535,34.729A77.6,77.6,0,0,0,8.66,24.61a41.207,41.207,0,0,0,3.4-10.913,16.942,16.942,0,0,0-1.812-11.09A6.281,6.281,0,0,0,7.6,0Z" transform="translate(26.826 1.435) rotate(9.14)" fill="#004d40"/>
          <path id="Vector-150" data-name="Vector" d="M1.237,38.183C6.8,28.153,10.162,17.5,9.367,5.884q-.133-2.85-.53-5.567a3.142,3.142,0,0,0-1.9-.265A3.844,3.844,0,0,0,4.286,2.836a13.522,13.522,0,0,0-.221,4.021A89.652,89.652,0,0,1,.574,36.68,6.984,6.984,0,0,1,0,38.183Z" transform="translate(25.691 0.976) rotate(9.14)" fill="#00796b"/>
          <path id="Vector-151" data-name="Vector" d="M12.681,29.841a7.108,7.108,0,0,1-.442-2.563A69.621,69.621,0,0,0,10.648,13.36,23.343,23.343,0,0,0,3.8,1.342C2.739.414,1.237-.425.044.237A.043.043,0,0,0,0,.282,53.8,53.8,0,0,1,11.885,29.841Z" transform="translate(8.009 6.58) rotate(9.14)" fill="#004d40"/>
          <path id="Vector-152" data-name="Vector" d="M13.017,29.559A54.131,54.131,0,0,0,1.132,0a2.69,2.69,0,0,0-1.1,2.7A8.218,8.218,0,0,0,1.264,5.567a140.146,140.146,0,0,1,11.09,23.948v.044Z" transform="translate(6.804 6.671) rotate(9.14)" fill="#00796b"/>
          <path id="Vector-153" data-name="Vector" d="M5.7,2.367C4.6,1.042,3.093-.328,1.414.07A2.653,2.653,0,0,0,0,1.042,78.884,78.884,0,0,1,11.355,14.827h1.723v.044A46.412,46.412,0,0,0,5.7,2.367Z" transform="translate(0.222 20.488) rotate(9.14)" fill="#004d40"/>
          <path id="Vector-154" data-name="Vector" d="M.669,0a3.849,3.849,0,0,0-.53,3.181A9.448,9.448,0,0,0,3.187,7.246c2.386,2.209,4.772,4.374,7.158,6.539h1.679A78.884,78.884,0,0,0,.669,0Z" transform="translate(-0.613 21.454) rotate(9.14)" fill="#00796b"/>
        </g>
        <g id="Group-2" data-name="Group" transform="translate(128.711 125.65)">
          <path id="Vector-155" data-name="Vector" d="M7.749,0c.262,2.913.458,5.928.556,8.891C9.123,27.492,5.689,44.457,0,60.451H1.635C2.42,58.56,3.074,56.72,3.6,55.443A166.684,166.684,0,0,0,8.861,39.3a94.513,94.513,0,0,0,3.5-17.425c.49-6.081.065-12.468-1.9-17.732A9.051,9.051,0,0,0,7.749,0Z" transform="translate(24.41 0.498)" fill="#004d40"/>
          <path id="Vector-156" data-name="Vector" d="M1.275,60.948C6.965,44.954,10.365,27.989,9.58,9.389,9.482,6.374,9.319,3.41,9.025.5A2.14,2.14,0,0,0,7.063.089c-1.341.46-2.322,2.4-2.681,4.446a29.614,29.614,0,0,0-.229,6.387A221.851,221.851,0,0,1,.589,58.547,16.067,16.067,0,0,1,0,60.948Z" transform="translate(23.135)" fill="#00796b"/>
          <path id="Vector-157" data-name="Vector" d="M12.981,47.606a16.7,16.7,0,0,1-.458-4.037A166.265,166.265,0,0,0,10.888,21.34c-1.177-7.256-3.4-14.257-7-19.213C2.812.645,1.308-.683.033.39,0,.39,0,.441,0,.441A117.093,117.093,0,0,1,12.163,47.657h.817v-.051Z" transform="translate(6.197 13.344)" fill="#004d40"/>
          <path id="Vector-158" data-name="Vector" d="M13.313,47.216A117.314,117.314,0,0,0,1.15,0C.234.818-.125,2.657.038,4.292A17.213,17.213,0,0,0,1.281,8.84,290.678,290.678,0,0,1,12.594,47.063a.262.262,0,0,1,.033.153Z" transform="translate(5.016 13.732)" fill="#00796b"/>
          <path id="Vector-159" data-name="Vector" d="M5.82,3.8C4.708,1.7,3.139-.546,1.439.119A3.054,3.054,0,0,0,0,1.7,127.155,127.155,0,0,1,11.575,23.727h1.766A91.549,91.549,0,0,0,5.82,3.8Z" transform="translate(0.639 37.222)" fill="#004d40"/>
          <path id="Vector-160" data-name="Vector" d="M.672,0A9.2,9.2,0,0,0,.149,5.11,16.784,16.784,0,0,0,3.255,11.6c2.42,3.475,4.839,6.95,7.292,10.424h1.7A133.849,133.849,0,0,0,.672,0Z" transform="translate(0 38.925)" fill="#00796b"/>
        </g>
        <g id="Group-3" data-name="Group" transform="translate(113.084)">
          <path id="Vector-161" data-name="Vector" d="M32.844,21.729,34.36,4.043S34.5-.071,42.517,0C50.53,0,52.551,8.086,52.551,8.086L47.065,36.671a8.855,8.855,0,0,1-10.395,5.7L0,24.255,5.053,12.345Z" transform="translate(12.445 18.984)" fill="#e9a890"/>
          <g id="Group-4" data-name="Group" transform="translate(32.584 72.402)">
            <path id="Vector-162" data-name="Vector" d="M56.521,16.314C25.305,16.314,0,12.662,0,8.157S25.305,0,56.521,0s56.521,3.652,56.521,8.157S87.737,16.314,56.521,16.314Z" transform="translate(0 155.561)" fill="#989498" opacity="0.29"/>
            <g id="Group-5" data-name="Group" transform="translate(21.941)">
              <g id="Group-6" data-name="Group" transform="translate(0 143.144)">
                <path id="Vector-163" data-name="Vector" d="M10.683,7.868,9.673,0H0L1.083,7.868Z" transform="translate(22.665)" fill="#ffc9b9"/>
                <g id="Group-7" data-name="Group" transform="translate(0 7.867)">
                  <path id="Vector-164" data-name="Vector" d="M20.284,0H33.566L37.32,9.529H0l.938-1.8Z" transform="translate(0.723)" fill="#fff"/>
                  <path id="Vector-165" data-name="Vector" d="M38.619,1.516H0L.722,0h37.32Z" transform="translate(0 9.529)" fill="#212121"/>
                </g>
              </g>
              <path id="Vector-166" data-name="Vector" d="M0,24.327,1.011,89.655l15.3,57.027,12.488-.794L28.08,96.512,20.212,80.559C24.327,57.171,39.269,35.587,22.161,0L0,6.136Z" transform="translate(5.341)" fill="#212121"/>
            </g>
            <g id="Group-8" data-name="Group" transform="translate(46.559 3.177)">
              <g id="Group-9" data-name="Group" transform="translate(3.249 143.144)">
                <path id="Vector-167" data-name="Vector" d="M10.756,7.868,9.673,0H0L1.155,7.868Z" transform="translate(22.666)" fill="#ffc9b9"/>
                <g id="Group-10" data-name="Group" transform="translate(0 7.868)">
                  <path id="Vector-168" data-name="Vector" d="M20.212,0H33.566l3.681,9.529H0l.866-1.8Z" transform="translate(0.791)" fill="#fff"/>
                  <path id="Vector-169" data-name="Vector" d="M38.619,1.516H0L.794,0H38.042Z" transform="translate(0 9.529)" fill="#212121"/>
                </g>
              </g>
              <path id="Vector-170" data-name="Vector" d="M3.1,24.038,9.6,89.654l15.3,57.027,12.488-.794L36.67,96.512l-7.8-17.9C32.989,55.222,38.042,22.594,30.823,0L0,8.518Z" fill="#424242"/>
              <path id="Vector-171" data-name="Vector" d="M8.294.379c-.505,1.588-.505,3.393-.866,5.053A29.4,29.4,0,0,1,5.84,10.485a33.676,33.676,0,0,1-5.63,9.1c-.65.722.361,1.8,1.011,1.083a32.74,32.74,0,0,0,5.919-9.384A33.631,33.631,0,0,0,8.8,5.865c.289-1.732.794-3.754.433-5.486A.48.48,0,0,0,8.294.379Z" transform="translate(21.159 68.703)" fill="#212121"/>
              <path id="Vector-172" data-name="Vector" d="M2.249.028C1.96.245,1.744.389,1.672.75a6.014,6.014,0,0,0-.289,1.083L.878,4C.733,4.72.517,5.442.372,6.164A7.56,7.56,0,0,0,.011,8.33a.393.393,0,0,0,.722.217,10.244,10.244,0,0,0,.722-2.093c.217-.722.433-1.444.577-2.166.217-.722.361-1.444.577-2.166.072-.361.217-.722.289-1.083A1.4,1.4,0,0,0,2.682.173.347.347,0,0,0,2.249.028Z" transform="translate(25.109 84.573)" fill="#212121"/>
            </g>
          </g>
          <g id="Group-11" data-name="Group">
            <path id="Vector-173" data-name="Vector" d="M6.878,0C14.457,5.775,19.366,15.087,24.2,23.6a43.379,43.379,0,0,1-17.9,9.24c-1.8-5.414-3.465-10.9-4.981-16.386a23.186,23.186,0,0,1-1.3-7.94C.165,5.847,4.64,1.516,6.878,0Z" transform="translate(41.873)" fill="#cfd8dc"/>
            <g id="Group-12" data-name="Group" transform="translate(0 19.268)">
              <path id="Vector-174" data-name="Vector" d="M11.676,0C7.995,1.155,3.88,2.166,1.642,5.27a9.094,9.094,0,0,0-.866,8.879c1.3,2.815,4.836,2.6,7.94,2.887l8.734-8.3C15.5,5.847,13.625,2.887,11.676,0Z" transform="translate(5.317 7.802)" fill="#e9a890"/>
              <path id="Vector-175" data-name="Vector" d="M12.373,9.534a1.555,1.555,0,0,1-2.887,1.155,12.933,12.933,0,0,0-8.518-7.8C-.982,2.315.318-.5,2.194.078A15.972,15.972,0,0,1,12.373,9.534Z" transform="translate(5.702)" fill="#e9a890"/>
              <path id="Vector-176" data-name="Vector" d="M12.341,9.534a1.555,1.555,0,0,1-2.887,1.155,12.933,12.933,0,0,0-8.518-7.8C-.942,2.315.286-.5,2.162.078A15.972,15.972,0,0,1,12.341,9.534Z" transform="translate(2.486 3.393)" fill="#e9a890"/>
              <path id="Vector-177" data-name="Vector" d="M12.39,9.534A1.555,1.555,0,0,1,9.5,10.689a12.933,12.933,0,0,0-8.518-7.8C-.964,2.315.263-.5,2.212.078A15.972,15.972,0,0,1,12.39,9.534Z" transform="translate(0.632 7.652)" fill="#e9a890"/>
              <path id="Vector-178" data-name="Vector" d="M12.373,9.532a1.555,1.555,0,0,1-2.887,1.155,12.933,12.933,0,0,0-8.518-7.8C-.982,2.386.318-.5,2.194.076A15.972,15.972,0,0,1,12.373,9.532Z" transform="translate(0 12.201)" fill="#e9a890"/>
            </g>
          </g>
        </g>
        <g id="Group-13" data-name="Group" transform="translate(0 72.33)">
          <g id="Group-14" data-name="Group">
            <path id="Vector-179" data-name="Vector" d="M56.521,16.314C25.305,16.314,0,12.662,0,8.157S25.305,0,56.521,0s56.521,3.652,56.521,8.157S87.737,16.314,56.521,16.314Z" transform="translate(0 155.633)" fill="#989498" opacity="0.29"/>
            <g id="Group-15" data-name="Group" transform="translate(46.563)">
              <g id="Group-16" data-name="Group" transform="translate(0 143.216)">
                <path id="Vector-180" data-name="Vector" d="M0,7.868,1.011,0h9.673L9.6,7.868Z" transform="translate(5.195)" fill="#ffc9b9"/>
                <g id="Group-17" data-name="Group" transform="translate(0 7.868)">
                  <path id="Vector-181" data-name="Vector" d="M16.964,0H3.681L0,9.529H37.248l-.938-1.8Z" transform="translate(0.58)" fill="#3f72af"/>
                  <path id="Vector-182" data-name="Vector" d="M0,1.516H38.619L37.825,0H.577Z" transform="translate(0 9.529)" fill="#212121"/>
                </g>
              </g>
              <path id="Vector-183" data-name="Vector" d="M30.184,24.4l.289,60.419-16.891,63.09H1.382l.722-51.4L9.973,80.559C5.858,57.171-9.084,35.587,8.024,0L30.184,6.208Z" transform="translate(3.021)" fill="#fac971"/>
            </g>
            <g id="Group-18" data-name="Group" transform="translate(24.618 3.177)">
              <g id="Group-19" data-name="Group" transform="translate(0 143.216)">
                <path id="Vector-184" data-name="Vector" d="M0,7.868.289,0H10.756L9.6,7.868Z" transform="translate(5.196)" fill="#ffc9b9"/>
                <g id="Group-20" data-name="Group" transform="translate(0 7.869)">
                  <path id="Vector-185" data-name="Vector" d="M17.036,0H3.681L0,9.529H37.32l-.938-1.8Z" transform="translate(0.58)" fill="#3f72af"/>
                  <path id="Vector-186" data-name="Vector" d="M0,1.516H38.619L37.9,0H.577Z" transform="translate(0 9.529)" fill="#212121"/>
                </g>
              </g>
              <path id="Vector-187" data-name="Vector" d="M34.288,24.11,28.8,86.045,12.2,147.908H0l.722-51.4,7.8-17.9C4.476,55.222-.65,22.594,6.641,0L37.392,8.59Z" transform="translate(4.474)" fill="#d7a141"/>
              <path id="Vector-188" data-name="Vector" d="M1.064.379c.505,1.588.505,3.393.866,5.053a29.4,29.4,0,0,0,1.588,5.053,33.676,33.676,0,0,0,5.63,9.1c.65.722-.361,1.8-1.011,1.083a32.74,32.74,0,0,1-5.919-9.384A33.631,33.631,0,0,1,.558,5.865C.27,4.133-.236,2.111.125.379A.48.48,0,0,1,1.064.379Z" transform="translate(11.353 68.774)" fill="#212121"/>
              <path id="Vector-189" data-name="Vector" d="M.65.028c.289.217.505.361.577.722a6.014,6.014,0,0,1,.289,1.083L2.021,4c.144.722.361,1.444.505,2.166A7.56,7.56,0,0,1,2.887,8.33a.393.393,0,0,1-.722.217,10.244,10.244,0,0,1-.722-2.093c-.217-.722-.433-1.444-.577-2.166C.65,3.565.505,2.844.289,2.122.217,1.761.072,1.4,0,1.039A1.4,1.4,0,0,1,.217.173.347.347,0,0,1,.65.028Z" transform="translate(13.858 84.646)" fill="#212121"/>
            </g>
          </g>
        </g>
      </g>
    </g>
  </g>
  <g id="Group_3834" data-name="Group 3834" transform="translate(113.047)">
    <path id="Vector-190" data-name="Vector" d="M.357,8.433A7.119,7.119,0,0,1,6.3,3.315c2.291-.142,4.582,1,6.874.782,3.079-.284,5.442-2.986,8.449-3.839a7.113,7.113,0,0,1,5.513.711,7.415,7.415,0,0,1,3.437,4.336,23.212,23.212,0,0,0,.788,3.2c1,2.275,3.652,3.483,4.869,5.687,1.217,2.061.859,4.763-.143,6.966a61.806,61.806,0,0,1-3.652,6.256A21.622,21.622,0,0,0,29.785,39,132.881,132.881,0,0,0,6.515,21.442,13.1,13.1,0,0,1,1.5,16.395,10.4,10.4,0,0,1,.357,8.433Z" transform="translate(43.953)" fill="#734f2e"/>
    <path id="Vector-191" data-name="Vector" d="M7.815,6.607c.072,0,.072-.072.144-.072A77.939,77.939,0,0,1,41.6.038c2.887.072,7.868,2.238,9.023,4.909C61.088,29.489,71.122,65.51,70.905,91.28c-9.889,10.539-39.2,10.9-53.417,8.807C15.467,78,11.5,45.081,1.391,24.725A13.353,13.353,0,0,1,7.815,6.607Z" transform="translate(48.704 41.867)" fill="#fac971"/>
    <path id="Vector-192" data-name="Vector" d="M27.791,0C23.172,10.323,11.405,16.386,0,17.252A205.474,205.474,0,0,1,5.2,38.619a42.889,42.889,0,0,0,12.993-3.537c8.879-4.115,14.365-13.787,15.087-23.388C34,7.579,31.906,2.743,27.791,0Z" transform="translate(55.802 63.849)" fill="#5c727b"/>
    <g id="Group-21" data-name="Group" transform="translate(49.229 16.695)">
      <g id="Group-22" data-name="Group">
        <g id="Group-23" data-name="Group">
          <g id="Group-24" data-name="Group">
            <path id="Vector-193" data-name="Vector" d="M5.775.161A35.382,35.382,0,0,1,13.21.305c1.66,3.248,1.516,6.28,4.548,8.229A1.52,1.52,0,0,0,18.7,8.9a7.28,7.28,0,0,0,1.3-.65l1.732-.866c1.8-1.011,3.681-2.31,5.7-1.155a4.349,4.349,0,0,1,1.8,4.981A5.225,5.225,0,0,1,24.9,14.526c0,5.486.433,7.435,2.021,12.7-.577,2.671-2.526,6.208-4.692,7.219a9.271,9.271,0,0,1-6.93.577A48.672,48.672,0,0,0,13.282,27.3a17.337,17.337,0,0,1-5.414.866,2.72,2.72,0,0,1-1.949-.577,3.93,3.93,0,0,1-.794-1.3A77.245,77.245,0,0,1,0,1.6,32.194,32.194,0,0,1,5.775.161Z" fill="#ffc9b9"/>
            <path id="Vector-194" data-name="Vector" d="M2.96,1.877A19.686,19.686,0,0,1,0,2.6C2.238,1.877,3.681.794,5.486,0c.144,3.465,0,9.817-.505,9.6A48.672,48.672,0,0,0,2.96,1.877Z" transform="translate(10.395 25.354)" fill="#e9a890"/>
            <path id="Vector-195" data-name="Vector" d="M2.646.021c.361-.144.577.505.217.65a3.959,3.959,0,0,0-1.588,1.3,5.384,5.384,0,0,0-.505.866c-.144.289-.144.505-.361.722-.144.072-.361,0-.361-.144-.217-.65.361-1.588.794-2.021A4.636,4.636,0,0,1,2.646.021Z" transform="translate(23.774 7.647)" fill="#e9a890"/>
          </g>
          <path id="Vector-196" data-name="Vector" d="M.03.439A.575.575,0,0,1,.968.15,1.721,1.721,0,0,1,1.4.944c.072.289.144.505.217.794a.723.723,0,0,1-1.372.433A3.1,3.1,0,0,0,.1,1.305,1.777,1.777,0,0,1,.03.439Z" transform="translate(9.282 7.302)" fill="#433025"/>
          <path id="Vector-197" data-name="Vector" d="M.083.439A.63.63,0,0,1,1.094.15a2.8,2.8,0,0,1,.433.794c.072.289.144.505.217.794A.71.71,0,0,1,.372,2.1a1.776,1.776,0,0,1-.289-.794A1.2,1.2,0,0,1,.083.439Z" transform="translate(1.79 8.24)" fill="#433025"/>
        </g>
      </g>
    </g>
    <path id="Vector-198" data-name="Vector" d="M.032,1.641a.554.554,0,0,0,.65.722c.505-.144.938-.505,1.444-.65a5.491,5.491,0,0,0,1.516-.577A.62.62,0,0,0,3.569.2C2.487-.453.538.63.032,1.641Z" transform="translate(48.548 18.753)" fill="#734f2e"/>
    <path id="Vector-199" data-name="Vector" d="M.321.718C-.328,1.007.1,1.945.754,1.873a23.55,23.55,0,0,1,2.382-.361A9.986,9.986,0,0,0,5.23,1.44.563.563,0,0,0,5.374.429C4-.365,1.693.068.321.718Z" transform="translate(55.624 17.727)" fill="#734f2e"/>
    <path id="Vector-200" data-name="Vector" d="M8.662,0C6.713,2.743,3.681,4.259.577,5.27A4.67,4.67,0,0,1,0,4.62,33.365,33.365,0,0,0,8.662,0Z" transform="translate(55.944 31.726)" fill="#fff"/>
    <path id="Vector-201" data-name="Vector" d="M8.518,0a8.329,8.329,0,0,1-.072,1.877A6.934,6.934,0,0,1,6.858,5.7a7.635,7.635,0,0,1-5.2,2.671C1.3,7.724,1.011,7.146.65,6.5A10.56,10.56,0,0,0,0,5.558C3.176,4.476,6.208,2.96,8.157.289A1.575,1.575,0,0,0,8.518,0Z" transform="translate(56.377 31.51)" fill="#9c2222"/>
    <path id="Vector-202" data-name="Vector" d="M.516.309A1.238,1.238,0,0,0,2.249,1.537c.289-.144.505.361.217.505A1.8,1.8,0,0,1,.011.237C.011-.124.516-.051.516.309Z" transform="translate(57.085 40.006)" fill="#e9a890"/>
    <path id="Vector-203" data-name="Vector" d="M29.279.278c.65-.794,1.732.289,1.083,1.083A59.088,59.088,0,0,1,.91,21.139c-.938.289-1.3-1.227-.361-1.516A57.442,57.442,0,0,0,29.279.278Z" transform="translate(83.547 118.144)" fill="#5c727b"/>
    <path id="Vector-204" data-name="Vector" d="M12.037.523c.361-.938,1.8-.505,1.516.433A11.9,11.9,0,0,1,.632,8.68c-1.083-.144-.65-1.66.361-1.516A10.363,10.363,0,0,0,12.037.523Z" transform="translate(63.757 43.98)" fill="#5c727b"/>
    <path id="Vector-205" data-name="Vector" d="M2.8.523C2.875.6,2.8.74,2.658.74,2.225.812,1.864.6,1.431.6S.637.74.2.74C.06.812-.085.6.06.451A2.176,2.176,0,0,1,2.8.523Z" transform="translate(63.03 29.615)" fill="#e9a890"/>
    <path id="Vector-206" data-name="Vector" d="M2.969,5.822c-.144-.072-.361-.144-.505-.217-.289-.144-.65-.217-.938-.361C.875,4.956.442,4.523.659,3.8A6.042,6.042,0,0,1,1.669,2.069l.65-.866A2.377,2.377,0,0,0,2.824.264C2.9.12,2.68-.1,2.536.048a2.514,2.514,0,0,0-.794.938A12.246,12.246,0,0,1,1.02,2,4.466,4.466,0,0,0,.009,4.018,1.671,1.671,0,0,0,.875,5.606a4.416,4.416,0,0,0,.866.361c.144.072.361.144.505.217.217.072.433,0,.577.289.144.433-.072.794,0,1.155a.265.265,0,0,0,.072.217c.144.144.361-.144.361-.217,0-.289.072-.577.072-.866A1.247,1.247,0,0,0,2.969,5.822Z" transform="translate(52.18 28.357)" fill="#2e353a"/>
    <g id="Group-25" data-name="Group" transform="translate(0 36.579)">
      <g id="Group-26" data-name="Group">
        <g id="Group-27" data-name="Group" transform="translate(0 6.698)">
          <path id="Vector-207" data-name="Vector" d="M23.316,0V12.488H0V0Z" fill="#40aa54"/>
          <path id="Vector-208" data-name="Vector" d="M19.923,0V9.962H0V0Z" transform="translate(1.732 1.227)" fill="none" stroke="#f2e0be" stroke-miterlimit="10" stroke-width="1" stroke-dasharray="0 0"/>
          <path id="Vector-209" data-name="Vector" d="M3.032,6.28A3.05,3.05,0,0,1,0,3.248V3.032A3.05,3.05,0,0,1,3.032,0h.217A3.05,3.05,0,0,1,6.28,3.032v.217a3.112,3.112,0,0,1-3.1,3.032Z" transform="translate(8.444 2.887)" fill="#f2e0be"/>
        </g>
        <g id="Group-28" data-name="Group" transform="translate(9.635)">
          <path id="Vector-210" data-name="Vector" d="M11.79.128a26.849,26.849,0,0,0-10.611,1.3c-2.31.722-.65,5.847.144,8.085a6.764,6.764,0,0,0,5.342,4.259c2.671.361,5.27-.866,7.652-2.238l9.1-5.775A21,21,0,0,0,11.79.128Z" transform="translate(5.063)" fill="#ffc9b9"/>
          <path id="Vector-211" data-name="Vector" d="M2.838,5.261a.747.747,0,0,1,.072-.289c.072-.144.072-.217.144-.361,0-.072.072-.072.072-.144.144-.217.289-.505.433-.722A15.273,15.273,0,0,0,4.426,2.3a2.077,2.077,0,0,0,.217-1.155,1.717,1.717,0,0,0-.65-.938A1.439,1.439,0,0,0,1.972.713C1.322,2.013.384,3.1.095,4.467A4.472,4.472,0,0,0,.239,6.849,3.24,3.24,0,0,0,1.755,8.582,2.077,2.077,0,0,0,2.91,8.8a1.717,1.717,0,0,0,.938-.65,1.424,1.424,0,0,0-.505-2.021c-.072,0-.144-.072-.217-.144a.071.071,0,0,0-.072-.072V5.839c0-.072-.072-.144-.072-.217V5.55c-.217-.144-.217-.217-.144-.289Z" transform="translate(6.8 7.86)" fill="#ffc9b9"/>
          <path id="Vector-212" data-name="Vector" d="M3.284,1.86C1.263,3.592.541,6.263.035,8.79a1.52,1.52,0,0,0,1.011,1.877A1.464,1.464,0,0,0,2.923,9.656a18.041,18.041,0,0,1,.866-3.248c.072-.144.072-.217.144-.361a.727.727,0,0,0,.072-.217c.144-.217.217-.505.361-.722A3.056,3.056,0,0,1,4.728,4.6c.072-.072.144-.144.144-.217L5.161,4.1c.072-.072.217-.144.289-.217s.144-.072.144-.144a2.258,2.258,0,0,1,.722-.361A1.638,1.638,0,0,0,6.6,3.3a.651.651,0,0,1,.361-.072,3.623,3.623,0,0,1,.866-.144,9.229,9.229,0,0,1,1.516-.072,17.591,17.591,0,0,1,1.949.072,1.464,1.464,0,0,0,1.516-1.444A1.424,1.424,0,0,0,11.441.055C8.626-.089,5.594-.089,3.284,1.86Z" transform="translate(0 1.011)" fill="#ffc9b9"/>
          <path id="Vector-213" data-name="Vector" d="M3.423,7.015c-.072,0-.072-.072-.144-.072L3.134,6.8c-.072-.144-.072-.072.072.072-.072-.072-.144-.289-.217-.361,0-.072-.072-.144-.072-.217s-.144-.577-.072-.217a2.4,2.4,0,0,1,.072-1.011c-.144.361,0-.072.072-.144a1.026,1.026,0,0,1,.144-.433c.072-.144.072-.289.144-.433,0-.072,0-.072.072-.144V3.839a4.855,4.855,0,0,1,.505-.794A1.039,1.039,0,0,1,4,2.828c.072-.072.144-.217.289-.289A1.554,1.554,0,0,0,4.362.446,1.554,1.554,0,0,0,2.268.374,7.747,7.747,0,0,0,.031,5.21,4.159,4.159,0,0,0,2.774,9.83,1.553,1.553,0,0,0,4.65,8.82,1.768,1.768,0,0,0,3.5,7.015Z" transform="translate(4.119 6.179)" fill="#ffc9b9"/>
          <path id="Vector-214" data-name="Vector" d="M3.478.4A12.118,12.118,0,0,0,.3,4.874a5.355,5.355,0,0,0,.938,5.27,1.483,1.483,0,0,0,2.093.072,1.552,1.552,0,0,0,.072-2.093L3.334,8.05V7.978c0-.072-.072-.144-.072-.217a.252.252,0,0,1-.072-.144V7.545c0-.072-.072-.144-.072-.217a.265.265,0,0,0-.072-.217V6.246a.265.265,0,0,1,.072-.217c.072-.144.072-.361.144-.505,0-.072.072-.144.072-.217l.217-.433.65-.866V3.936c.072-.072.072-.144.144-.144.144-.144.217-.289.361-.361.289-.289.505-.577.794-.866A1.481,1.481,0,1,0,3.478.4Z" transform="translate(2.693 3.05)" fill="#ffc9b9"/>
        </g>
      </g>
      <path id="Vector-215" data-name="Vector" d="M2.458.006A3.185,3.185,0,0,0,0,3.11,6.2,6.2,0,0,0,2.1,7.441c.289.289.794-.144.505-.433A5.537,5.537,0,0,1,.726,3.4,2.548,2.548,0,0,1,2.6.655C3.035.583,2.891-.067,2.458.006Z" transform="translate(15.371 9.146)" fill="#e9a890"/>
      <path id="Vector-216" data-name="Vector" d="M1.955.086A5.37,5.37,0,0,0,.006,3.912a5.073,5.073,0,0,0,1.588,3.97c.289.289.866-.144.505-.433A4.638,4.638,0,0,1,2.388.592C2.749.3,2.244-.2,1.955.086Z" transform="translate(12.338 6.105)" fill="#e9a890"/>
    </g>
    <path id="Vector-217" data-name="Vector" d="M.347,12.76c-.794.433-.072,1.66.65,1.227A37.8,37.8,0,0,0,14.639,1.066.681.681,0,1,0,13.484.344,36.12,36.12,0,0,1,.347,12.76Z" transform="translate(86.345 64.153)" fill="#5c727b"/>
    <path id="Vector-218" data-name="Vector" d="M52.479,24.583c-.505.361-.866.577-.866.577L41.8,30.791,15.881,2.711A8.393,8.393,0,0,0,6.208.762L0,3.577,30.679,48.621a8.874,8.874,0,0,0,11.55,2.815L65.472,38.3c1.66-4.4,1.155-9.24-3.176-12.416A11.882,11.882,0,0,0,52.479,24.583Z" transform="translate(21.294 38.616)" fill="#ffc9b9"/>
    <path id="Vector-219" data-name="Vector" d="M0,1.78a11.371,11.371,0,0,1,9.817,1.3c4.4,3.176,4.836,8.013,3.248,12.416l.433-.217c0-.072,3.9-7.435-1.949-12.849C6.93-1.829,1.949.553,0,1.78Z" transform="translate(73.773 61.491)" fill="#e9a890"/>
    <path id="Vector-220" data-name="Vector" d="M6.769.056A10.936,10.936,0,0,0,.345,2.944c-.722.722-.217.938.65.361a10.61,10.61,0,0,1,12.777.577,9.215,9.215,0,0,1,1.3,12.272c-.577.794.722,1.66,1.3.866a10.851,10.851,0,0,0,.505-11.838A10.638,10.638,0,0,0,6.769.056Z" transform="translate(71.915 60.544)" fill="#5c727b"/>
  </g>
  <g id="Group-29" data-name="Group" transform="translate(37.658 8.372)">
    <path id="Vector-221" data-name="Vector" d="M0,17.974,6.785,0,28.8,6.208l3.681,9.673Z" transform="translate(54.39 83.992)" fill="#e9a890"/>
    <path id="Vector-222" data-name="Vector" d="M3.4,0C2.9.794,2.176,1.444,1.6,2.238a10.07,10.07,0,0,0-1.227,8.3c1.155,4.4,4.259,10.395,9.168,8.807,1.877-.577,3.465-1.949,5.2-3.032a25.867,25.867,0,0,1,10.106-3.9c1.66-.289,3.465-.361,4.836-1.444,2.238-1.732,2.526-5.558,1.083-8.157-.144,0-.144,0-.217-.072C21.666.938,12.5.577,3.4,0Z" transform="translate(38.641 12.094)" fill="#2e353a"/>
    <g id="Group-30" data-name="Group" transform="translate(40.286 47.971)">
      <path id="Vector-223" data-name="Vector" d="M14.1,30.462q4.439-10.5,8.013-21.223A41.711,41.711,0,0,1,4.211,0C.458,6.5-1.2,13.5.963,20.573A14.429,14.429,0,0,0,14.1,30.462Z" transform="translate(0 23.605)" fill="#e9a890"/>
      <path id="Vector-224" data-name="Vector" d="M17.325,0C9.745,5.775,4.836,15.087,0,23.6a43.379,43.379,0,0,0,17.9,9.24c1.8-5.414,3.465-10.9,4.981-16.386a23.471,23.471,0,0,0,1.3-7.94C24.038,5.847,19.562,1.516,17.325,0Z" transform="translate(4.138)" fill="#7d8ea2"/>
      <g id="Group-31" data-name="Group" transform="translate(41.963 26.126)">
        <path id="Vector-225" data-name="Vector" d="M5.775,0c3.681,1.155,7.8,2.166,10.034,5.27a9.094,9.094,0,0,1,.866,8.879c-1.3,2.815-8.879,3.537-11.983,3.826L0,8.734C1.949,5.847,3.826,2.887,5.775,0Z" transform="translate(0 7.802)" fill="#e9a890"/>
        <path id="Vector-226" data-name="Vector" d="M.117,9.534A1.555,1.555,0,0,0,3,10.689a12.933,12.933,0,0,1,8.518-7.8C13.4,2.315,12.172-.5,10.3.078A15.972,15.972,0,0,0,.117,9.534Z" transform="translate(4.575)" fill="#e9a890"/>
        <path id="Vector-227" data-name="Vector" d="M.117,9.534A1.555,1.555,0,0,0,3,10.689a12.933,12.933,0,0,1,8.518-7.8C13.472,2.315,12.172-.5,10.3.078A15.972,15.972,0,0,0,.117,9.534Z" transform="translate(7.751 3.393)" fill="#e9a890"/>
        <path id="Vector-228" data-name="Vector" d="M.117,9.534A1.555,1.555,0,0,0,3,10.689a12.933,12.933,0,0,1,8.518-7.8C13.4,2.315,12.172-.5,10.3.078A15.972,15.972,0,0,0,.117,9.534Z" transform="translate(9.626 7.652)" fill="#e9a890"/>
        <path id="Vector-229" data-name="Vector" d="M.117,9.532A1.555,1.555,0,0,0,3,10.687a12.933,12.933,0,0,1,8.518-7.8C13.4,2.386,12.172-.5,10.3.076A15.972,15.972,0,0,0,.117,9.532Z" transform="translate(10.277 12.201)" fill="#e9a890"/>
      </g>
    </g>
    <path id="Vector-230" data-name="Vector" d="M57.911,6.607c-.072,0-.072-.072-.144-.072A77.939,77.939,0,0,0,24.128.038C21.241.11,16.26,2.275,15.105,4.946,4.638,29.489-1.281,61.179.235,87.093c12.2,7.507,32.123,6.858,46.343,4.764,2.093-22.089,7.652-46.7,17.758-67.133A13.353,13.353,0,0,0,57.911,6.607Z" transform="translate(2.396 39.415)" fill="#07345a"/>
    <path id="Vector-231" data-name="Vector" d="M18.223,0a4.308,4.308,0,0,0-.65,1.083C7.106,25.626-1.339,63.523.177,89.366c12.2,7.507,35.587,5.414,49.808,3.321a106.25,106.25,0,0,1,1.732-23.893c-13.282,3.393-28.08-2.382-33.205-16.314C11.8,35.66,13.6,17.541,18.223,0Z" transform="translate(0 43.351)" fill="#07345a"/>
    <path id="Vector-232" data-name="Vector" d="M9.25,0A11.923,11.923,0,0,0,4.124,3.176C-.5,20.717-2.3,38.836,4.413,55.655,9.538,69.587,24.336,75.362,37.546,71.969q1.408-7.579,3.248-15.159a29.314,29.314,0,0,1-28.8-23.172C10.044,22.594,8.239,11.044,9.25,0Z" transform="translate(14.1 40.174)" fill="#7d8ea2"/>
    <path id="Vector-233" data-name="Vector" d="M37.149,6.534A77.939,77.939,0,0,0,3.511.038,11.756,11.756,0,0,0,.263.687c-.938,11.044.794,22.594,2.743,33.638A29.373,29.373,0,0,0,31.808,57.5,164.42,164.42,0,0,1,43.646,24.653,13.112,13.112,0,0,0,37.294,6.607C37.222,6.607,37.222,6.534,37.149,6.534Z" transform="translate(22.941 39.486)" fill="#07345a"/>
    <g id="Group-32" data-name="Group" transform="translate(38.092 14.243)">
      <g id="Group-33" data-name="Group">
        <g id="Group-34" data-name="Group">
          <g id="Group-35" data-name="Group">
            <path id="Vector-234" data-name="Vector" d="M23.657.161a35.382,35.382,0,0,0-7.435.144c-1.66,3.248-1.516,6.28-4.548,8.229a1.52,1.52,0,0,1-.938.361,7.28,7.28,0,0,1-1.3-.65L7.7,7.38C5.9,6.369,4.022,5.07,2,6.225A4.349,4.349,0,0,0,.2,11.205a5.225,5.225,0,0,0,4.331,3.321c0,5.486-.433,7.435-2.021,12.7C3.084,29.9,5.033,33.439,7.2,34.449a9.271,9.271,0,0,0,6.93.577A48.672,48.672,0,0,1,16.15,27.3a17.337,17.337,0,0,0,5.414.866,2.72,2.72,0,0,0,1.949-.577,3.93,3.93,0,0,0,.794-1.3A76.439,76.439,0,0,0,29.432,1.6,32.194,32.194,0,0,0,23.657.161Z" transform="translate(0.073)" fill="#f7a491"/>
            <path id="Vector-235" data-name="Vector" d="M14.726,1.6A32.194,32.194,0,0,0,8.951.161,35.382,35.382,0,0,0,1.516.305,38.972,38.972,0,0,0,0,4.2a38.108,38.108,0,0,1,14.581.289C14.654,3.554,14.726,2.543,14.726,1.6Z" transform="translate(14.708)" fill="#e9a890"/>
            <path id="Vector-236" data-name="Vector" d="M11.674,4.916a1.52,1.52,0,0,1-.938.361,7.28,7.28,0,0,1-1.3-.65L7.7,3.761C5.9,2.75,4.022,1.451,2,2.606A4.349,4.349,0,0,0,.2,7.587a5.225,5.225,0,0,0,4.331,3.321c0,5.486-.433,7.435-2.021,12.7C3.084,26.283,5.033,29.82,7.2,30.83a9.271,9.271,0,0,0,6.93.577,48.672,48.672,0,0,1,2.021-7.724,17.337,17.337,0,0,0,5.414.866,2.72,2.72,0,0,0,1.949-.577,3.929,3.929,0,0,0,.794-1.3A71.19,71.19,0,0,0,29.36.873C24.451.007,19.615-.426,14.778.585A7.556,7.556,0,0,1,11.674,4.916Z" transform="translate(0 3.619)" fill="#f7a491"/>
            <path id="Vector-237" data-name="Vector" d="M2.58,1.877a19.686,19.686,0,0,0,2.96.722C3.3,1.877,1.858.794.053,0c-.144,3.393,0,9.745.505,9.6A48.672,48.672,0,0,1,2.58,1.877Z" transform="translate(13.572 25.426)" fill="#e9a890"/>
          </g>
          <path id="Vector-238" data-name="Vector" d="M1.6.439A.575.575,0,0,0,.662.15,2.8,2.8,0,0,0,.229.944c-.072.289-.144.505-.217.794a.723.723,0,0,0,1.372.433,3.1,3.1,0,0,1,.144-.866A1.777,1.777,0,0,0,1.6.439Z" transform="translate(18.592 7.374)" fill="#433025"/>
          <path id="Vector-239" data-name="Vector" d="M1.673.439A.63.63,0,0,0,.662.15,2.8,2.8,0,0,0,.229.944c-.072.289-.144.505-.217.794A.71.71,0,0,0,1.384,2.1a1.514,1.514,0,0,0,.289-.794A1.2,1.2,0,0,0,1.673.439Z" transform="translate(25.953 8.24)" fill="#433025"/>
        </g>
      </g>
    </g>
    <path id="Vector-240" data-name="Vector" d="M3.79,1.641a.554.554,0,0,1-.65.722c-.505-.144-.938-.505-1.444-.65A5.491,5.491,0,0,1,.18,1.135.617.617,0,0,1,.253.2C1.335-.453,3.284.63,3.79,1.641Z" transform="translate(64.458 16.373)" fill="#2e353a"/>
    <path id="Vector-241" data-name="Vector" d="M5.315.718c.65.289.217,1.227-.433,1.155A23.551,23.551,0,0,0,2.5,1.512,9.986,9.986,0,0,1,.406,1.44C-.027,1.223-.172.646.262.429,1.633-.365,3.943.068,5.315.718Z" transform="translate(55.571 15.346)" fill="#2e353a"/>
    <path id="Vector-242" data-name="Vector" d="M1.283.278C.633-.517-.449.566.2,1.36A59.088,59.088,0,0,0,29.652,21.139a.781.781,0,0,0,.361-1.516A57.442,57.442,0,0,1,1.283.278Z" transform="translate(7.266 105.514)" fill="#7d8ea2"/>
    <path id="Vector-243" data-name="Vector" d="M1.554.524C1.193-.415-.251.018.038.957A11.9,11.9,0,0,0,12.959,8.68c1.083-.217.65-1.66-.361-1.516A10.363,10.363,0,0,1,1.554.524Z" transform="translate(39.479 41.6)" fill="#7d8ea2"/>
    <g id="Group-36" data-name="Group" transform="translate(39.014)">
      <path id="Vector-244" data-name="Vector" d="M26.635,4.515A12.868,12.868,0,0,0,18.19.039C14.364-.394,6.351,2.854,3.319,5.309s-3.9,5.63-2.96,9.962l11.55.433a32.593,32.593,0,0,0-1.66-12.2C15.735,2.927,21.149,3.793,26.635,4.515Z" fill="#07345a"/>
      <path id="Vector-245" data-name="Vector" d="M0,.189a30.946,30.946,0,0,1,1.588,12.2l17.685-.144a15.822,15.822,0,0,0-1.877-9.6c-.289-.433-.65-.938-1.011-1.444C10.9.477,5.486-.389,0,.189Z" transform="translate(10.249 3.314)" fill="#82b1ff"/>
      <path id="Vector-246" data-name="Vector" d="M27.884.217Q23.228,0,18.572,0T9.26.217C7.672.289,6.084.361,4.5.505,3.2.65,1.392.505.237,1.3a.483.483,0,0,0,.072.866c1.3.577,3.1.144,4.476.072,1.444-.072,2.887-.144,4.4-.217,3.1-.144,6.208-.217,9.312-.144,3.032,0,6.064.072,9.168.217s6.208.577,9.312.577c.866,0,1.227-1.516.217-1.66A79.668,79.668,0,0,0,27.884.217Z" transform="translate(0.337 13.754)" fill="#07345a"/>
    </g>
    <g id="Group-37" data-name="Group" transform="translate(67.456 55.333)">
      <path id="Vector-247" data-name="Vector" d="M51.18,0V37.392H0V0Z" fill="#40aa54"/>
      <path id="Vector-248" data-name="Vector" d="M10.756,0V10.756H0V0Z" transform="translate(19.702)" fill="#f4e09c"/>
      <g id="Group-38" data-name="Group" transform="translate(35.368 13.499)">
        <g id="Group-39" data-name="Group">
          <path id="Vector-249" data-name="Vector" d="M6.064,0C3.032,0,.505,1.66,0,3.826H12.127C11.622,1.66,9.168,0,6.064,0Z" fill="#16162e"/>
        </g>
        <g id="Group-40" data-name="Group" transform="translate(5.702 3.464)">
          <path id="Vector-250" data-name="Vector" d="M0,5.486V.361A.341.341,0,0,1,.361,0,.341.341,0,0,1,.722.361V5.486a.794.794,0,1,0,1.588,0V4.042a.341.341,0,0,1,.361-.361.341.341,0,0,1,.361.361V5.486A1.48,1.48,0,0,1,1.516,7,1.48,1.48,0,0,1,0,5.486Z" fill="#16162e"/>
        </g>
      </g>
      <g id="Group-41" data-name="Group" transform="translate(35.441 26.565)">
        <path id="Vector-251" data-name="Vector" d="M.866,0V9.24H0V0Z" fill="#16162e"/>
        <path id="Vector-252" data-name="Vector" d="M.866,0V7.219H0V0Z" transform="translate(1.442)" fill="#16162e"/>
        <path id="Vector-253" data-name="Vector" d="M.866,0V7.219H0V0Z" transform="translate(2.888)" fill="#16162e"/>
        <path id="Vector-254" data-name="Vector" d="M.866,0V7.219H0V0Z" transform="translate(4.328)" fill="#16162e"/>
        <path id="Vector-255" data-name="Vector" d="M.866,0V7.219H0V0Z" transform="translate(5.773)" fill="#16162e"/>
        <path id="Vector-256" data-name="Vector" d="M.866,0V7.219H0V0Z" transform="translate(7.216)" fill="#16162e"/>
        <path id="Vector-257" data-name="Vector" d="M.866,0V7.219H0V0Z" transform="translate(8.661)" fill="#16162e"/>
        <path id="Vector-258" data-name="Vector" d="M.866,0V7.219H0V0Z" transform="translate(10.102)" fill="#16162e"/>
        <path id="Vector-259" data-name="Vector" d="M.866,0V9.24H0V0Z" transform="translate(11.549)" fill="#16162e"/>
      </g>
    </g>
    <g id="Group-42" data-name="Group" transform="translate(15.83 39.514)">
      <g id="Group-43" data-name="Group">
        <path id="Vector-260" data-name="Vector" d="M18.272,9.395c.289-4.476-2.96-9.168-7.94-9.384C5.64-.206.8,2.97.442,7.734A158.967,158.967,0,0,0,.587,33.288a42.061,42.061,0,0,0,17.974-.577A125.415,125.415,0,0,1,18.272,9.395Z" fill="#07345a"/>
        <path id="Vector-261" data-name="Vector" d="M5.486,0c3.681,1.011,7.8,1.949,10.178,4.981a9.1,9.1,0,0,1,1.083,8.879A9.021,9.021,0,0,1,9.6,19.2L0,8.879C1.8,5.919,3.681,2.96,5.486,0Z" transform="translate(58.696 32.422)" fill="#f7a491"/>
        <path id="Vector-262" data-name="Vector" d="M.095,9.842c-.65,1.877,2.238,2.96,2.887,1.083a13.084,13.084,0,0,1,8.3-8.013c1.877-.65.577-3.465-1.3-2.815A15.96,15.96,0,0,0,.095,9.842Z" transform="translate(63.076 24.313)" fill="#f7a491"/>
        <path id="Vector-263" data-name="Vector" d="M.095,9.842c-.65,1.877,2.238,2.96,2.887,1.083a13.084,13.084,0,0,1,8.3-8.013c1.877-.65.577-3.465-1.3-2.815A15.96,15.96,0,0,0,.095,9.842Z" transform="translate(66.397 27.634)" fill="#f7a491"/>
        <path id="Vector-264" data-name="Vector" d="M.095,9.842c-.65,1.877,2.238,2.96,2.887,1.083a13.084,13.084,0,0,1,8.3-8.013c1.877-.65.577-3.465-1.3-2.815A15.96,15.96,0,0,0,.095,9.842Z" transform="translate(68.346 31.82)" fill="#f7a491"/>
        <path id="Vector-265" data-name="Vector" d="M.095,9.824c-.65,1.877,2.238,2.96,2.887,1.083a13.084,13.084,0,0,1,8.3-8.013c1.877-.65.577-3.393-1.3-2.815A15.96,15.96,0,0,0,.095,9.824Z" transform="translate(69.14 36.385)" fill="#f7a491"/>
      </g>
    </g>
    <path id="Vector-266" data-name="Vector" d="M3.384.406a22.919,22.919,0,0,1,0,8.3L.352,8.491a.361.361,0,0,0,0,.722c1.083.072,2.238.144,3.321.217a.4.4,0,0,0,.361-.217,26.616,26.616,0,0,0,0-8.951C3.962-.172,3.312-.027,3.384.406Z" transform="translate(58.944 21.867)" fill="#433025"/>
    <path id="Vector-267" data-name="Vector" d="M.673.166C.456-.2-.121.094.023.455A6.665,6.665,0,0,0,5.942,3.992c.505-.072.505-.794.072-.722A5.9,5.9,0,0,1,.673.166Z" transform="translate(52.778 32.718)" fill="#433025"/>
    <path id="Vector-268" data-name="Vector" d="M2.815.439A3.075,3.075,0,0,0,.289.15.487.487,0,0,0,0,.583.487.487,0,0,0,.433.872a2.312,2.312,0,0,1,1.949.217A2.544,2.544,0,0,1,3.393,2.532c.217.361.938.217.794-.217A2.779,2.779,0,0,0,2.815.439Z" transform="translate(39.592 21.183)" fill="#e9a890"/>
    <path id="Vector-269" data-name="Vector" d="M20.14,20.356,18.191,0a13.486,13.486,0,0,1-3.1,1.372,28.656,28.656,0,0,1-7.868.938c-1.8-.072-3.681-.072-5.486-.289A14.454,14.454,0,0,1,0,1.732L2.671,31.4A8.976,8.976,0,0,0,3.9,34.721,14.314,14.314,0,0,0,22.955,39.7L66.988,20.068,59.409,8.807Z" transform="translate(17.068 71.07)" fill="#f7a491"/>
    <path id="Vector-270" data-name="Vector" d="M30.174,34.36C21.8,37.031,8.951,42.445,5.125,30.9L3.248,6.425C8.3,7.652,13.787,5.414,18.48,2.743L18.191,0a13.486,13.486,0,0,1-3.1,1.372,28.656,28.656,0,0,1-7.868.938c-1.8-.072-3.681-.072-5.486-.289A14.454,14.454,0,0,1,0,1.732L2.671,31.4A8.976,8.976,0,0,0,3.9,34.721,14.314,14.314,0,0,0,22.955,39.7L67.133,20C53.345,24.543,44.9,29.74,30.174,34.36Z" transform="translate(16.997 71.142)" fill="#e9a890"/>
    <path id="Vector-271" data-name="Vector" d="M.812,1.94C-.054,1.723-.343,3.094.523,3.311A30.03,30.03,0,0,0,20.591,1.362c.722-.361.361-1.66-.433-1.3A28.891,28.891,0,0,1,.812,1.94Z" transform="translate(15.462 70.068)" fill="#7d8ea2"/>
  </g>
</svg>
