<svg xmlns="http://www.w3.org/2000/svg" width="17" height="16" viewBox="0 0 17 16">
  <path id="Shape" d="M14.875,16H2.125a1.066,1.066,0,0,1-1.062-1.068V8.524H.531A.533.533,0,0,1,0,7.989V5.319A1.066,1.066,0,0,1,1.063,4.252H4.424a4.229,4.229,0,0,1-.594-.478,2.243,2.243,0,0,1,0-3.142,2.238,2.238,0,0,1,3.117,0c.424.428,1.685,2.33,1.514,3.62h.077C8.366,2.964,9.628,1.06,10.052.632a2.238,2.238,0,0,1,3.117,0,2.242,2.242,0,0,1,0,3.142,4.154,4.154,0,0,1-.593.478h3.361A1.066,1.066,0,0,1,17,5.319v2.67a.533.533,0,0,1-.531.535h-.532v6.408A1.066,1.066,0,0,1,14.875,16ZM9.032,8.523v6.409h5.844V8.523Zm-6.907,0v6.409H7.969V8.523Zm6.907-3.2V7.456h6.906V5.319H9.032Zm-7.969,0V7.456H7.969V5.319H1.063ZM11.61,1.059a1.137,1.137,0,0,0-.8.326c-.717.724-1.429,2.573-1.182,2.831a.379.379,0,0,0,.2.035,5.216,5.216,0,0,0,2.594-1.23,1.169,1.169,0,0,0,0-1.636A1.137,1.137,0,0,0,11.61,1.059ZM5.39,1.047a1.127,1.127,0,0,0-.806.337,1.17,1.17,0,0,0,0,1.636,5.216,5.216,0,0,0,2.594,1.23.352.352,0,0,0,.2-.035c.248-.257-.463-2.106-1.18-2.831A1.126,1.126,0,0,0,5.39,1.047Z" transform="translate(0 0)" fill="#fff"/>
</svg>
