<svg id="Group" xmlns="http://www.w3.org/2000/svg" width="30" height="30" viewBox="0 0 30 30">
  <path id="Vector" d="M30,15A15,15,0,1,1,15,0,15.044,15.044,0,0,1,30,15Z" fill="#dd4b39"/>
  <g id="Group-2" data-name="Group" transform="translate(7 10)">
    <path id="Vector-2" data-name="Vector" d="M2.911,1.455H4.366V2.911H2.911V4.366H1.455V2.911H0V1.455H1.455V0H2.911Z" transform="translate(11.634 2.881)" fill="#fff"/>
    <path id="Vector-3" data-name="Vector" d="M1.526,1.426A4.988,4.988,0,0,1,6.944.375l.728.4.809.566L7.186,2.639,6.7,2.315A3.088,3.088,0,0,0,2.9,2.8a3.394,3.394,0,0,0,0,4.69,3.126,3.126,0,0,0,4.528,0A2.581,2.581,0,0,0,8.157,6.2V6.035H5.246V4.418H9.855l.081.4V5.954a4.511,4.511,0,0,1-1.213,2.83A5.358,5.358,0,0,1,1.445,8.7,5.2,5.2,0,0,1,1.526,1.426Z" fill="#fff"/>
  </g>
</svg>
