<svg xmlns="http://www.w3.org/2000/svg" width="14.981" height="18.3" viewBox="0 0 14.981 18.3">
  <g id="Group_5" data-name="Group 5" transform="translate(0.25 0.272)">
    <path id="Path" d="M13.626,9.248v7.669H9.234V12.1a.42.42,0,0,0-.409-.43H5.619a.42.42,0,0,0-.409.43V15.92a.41.41,0,1,0,.819,0V12.533H8.416v4.384H.819V6.38l6.4-5.4L13.779,6.51a.4.4,0,0,0,.575-.067.446.446,0,0,0-.063-.605L7.478.095a.393.393,0,0,0-.512,0L.153,5.838A.439.439,0,0,0,0,6.174V17.347a.42.42,0,0,0,.409.43H14.035a.42.42,0,0,0,.409-.43v-8.1a.41.41,0,1,0-.819,0Z" fill="#fff" stroke="#fff" stroke-width="0.5" stroke-dasharray="0 0"/>
    <path id="Path_4" data-name="Path 4" d="M0,4.444C2.6,3.765,3.658,2.738,3.61,0" transform="translate(2.406 5.555)" fill="none" stroke="#fff" stroke-width="1.3" stroke-dasharray="0 0"/>
  </g>
</svg>
