<svg xmlns="http://www.w3.org/2000/svg" width="88" height="69" viewBox="0 0 88 69">
  <g id="Group_73" data-name="Group 73" transform="translate(0)">
    <circle id="Ellipse_387" data-name="Ellipse 387" cx="11" cy="11" r="11" transform="translate(66)" fill="#a2e7af"/>
    <path id="Vector" d="M56.547,66a6.693,6.693,0,0,1-6.768-6.6,6.421,6.421,0,0,1,.389-2.2h-9.8a6.444,6.444,0,0,1,.388,2.2,6.77,6.77,0,0,1-13.535,0,6.427,6.427,0,0,1,.388-2.2H24.965A6.693,6.693,0,0,1,18.2,50.6a6.624,6.624,0,0,1,3.9-5.976C21.315,42.179,10.3,7.76,9.716,5.945A2.239,2.239,0,0,0,7.564,4.4H2.256A2.231,2.231,0,0,1,0,2.2,2.231,2.231,0,0,1,2.256,0H7.564a6.72,6.72,0,0,1,6.459,4.633L15.357,8.8H74.744a2.262,2.262,0,0,1,1.781.85,2.145,2.145,0,0,1,.4,1.894L68.611,43.41a6.722,6.722,0,0,1-6.563,4.99H24.965a2.2,2.2,0,1,0,0,4.4H65.57a2.2,2.2,0,1,1,0,4.4H62.926a6.4,6.4,0,0,1,.388,2.2A6.693,6.693,0,0,1,56.547,66Zm0-8.8A2.2,2.2,0,1,0,58.8,59.4,2.231,2.231,0,0,0,56.547,57.2Zm-22.558,0a2.2,2.2,0,1,0,2.255,2.2A2.231,2.231,0,0,0,33.989,57.2ZM56.282,30.8h0L54.59,44h7.457a2.242,2.242,0,0,0,2.188-1.667L67.247,30.8H56.282ZM38.8,30.8,40.491,44h9.553l1.692-13.2Zm-16.4,0L26.624,44h9.32L34.252,30.8H22.4Zm36.14-17.6L56.846,26.4H68.4l3.446-13.2Zm-21.994,0,1.692,13.2H52.3l1.692-13.2H36.544Zm-19.778,0,4.226,13.2h12.7L32,13.2H16.765Z" transform="translate(0 3)" fill="#40aa54"/>
  </g>
</svg>
