<svg id="Logout" xmlns="http://www.w3.org/2000/svg" width="12.836" height="12.5" viewBox="0 0 12.836 12.5">
  <path id="Logout-2" data-name="Logout" d="M2.771,12.5A2.772,2.772,0,0,1,0,9.859l0-.131V2.772A2.772,2.772,0,0,1,2.641,0l.131,0H5.819A2.772,2.772,0,0,1,8.587,2.641l0,.131v.583a.468.468,0,0,1-.932.063l0-.063V2.772A1.835,1.835,0,0,0,5.926.941l-.107,0H2.771A1.834,1.834,0,0,0,.941,2.664l0,.108V9.728A1.834,1.834,0,0,0,2.663,11.56l.108,0H5.825a1.827,1.827,0,0,0,1.824-1.72l0-.107V9.146a.469.469,0,0,1,.933-.064l0,.064v.589A2.765,2.765,0,0,1,5.958,12.5l-.133,0Zm7.434-4.1a.468.468,0,0,1-.044-.61l.045-.052,1.026-1.022H4.841a.469.469,0,0,1-.063-.933l.063,0h6.391L10.206,4.76a.47.47,0,0,1-.047-.61l.046-.052a.468.468,0,0,1,.61-.047l.052.045L12.7,5.918a.468.468,0,0,1,.109.17v0l0,.013,0,.01,0,.006,0,.015v0a.466.466,0,0,1,.01.058h0q0,.01,0,.02h0c0,.011,0,.021,0,.032a.468.468,0,0,1-.133.327l0,.006L10.868,8.405a.468.468,0,0,1-.662,0Z" fill="#fff"/>
</svg>
