<svg id="Iconly_Light_Setting" data-name="Iconly/Light/Setting" xmlns="http://www.w3.org/2000/svg" width="15" height="15" viewBox="0 0 15 15">
  <rect id="Iconly_Light_Setting_Background_" data-name="Iconly/Light/Setting (Background)" width="15" height="15" fill="none"/>
  <g id="Setting" transform="translate(2.049 1.424)">
    <path id="Path_33946" d="M10.566,2.666a1.2,1.2,0,0,0-1.63-.441h0A1.19,1.19,0,0,1,7.305,1.8a1.144,1.144,0,0,1-.16-.572h0A1.2,1.2,0,0,0,5.949,0H5.166a1.19,1.19,0,0,0-1.19,1.2h0a1.2,1.2,0,0,1-1.2,1.178,1.144,1.144,0,0,1-.572-.16h0a1.2,1.2,0,0,0-1.63.441L.16,3.341a1.2,1.2,0,0,0,.435,1.63h0a1.2,1.2,0,0,1,.6,1.035,1.2,1.2,0,0,1-.6,1.035h0A1.19,1.19,0,0,0,.16,8.667h0l.395.681a1.2,1.2,0,0,0,1.63.463h0a1.184,1.184,0,0,1,1.625.435,1.144,1.144,0,0,1,.16.572h0a1.2,1.2,0,0,0,1.2,1.2h.784a1.2,1.2,0,0,0,1.2-1.19h0a1.19,1.19,0,0,1,1.2-1.2,1.219,1.219,0,0,1,.572.16h0a1.2,1.2,0,0,0,1.63-.435h0l.412-.686a1.19,1.19,0,0,0-.435-1.63h0a1.19,1.19,0,0,1-.435-1.63,1.173,1.173,0,0,1,.435-.435h0a1.2,1.2,0,0,0,.435-1.625h0V3.341Z" fill="none" stroke="#fff" stroke-linecap="round" stroke-linejoin="round" stroke-width="1.5" stroke-dasharray="0 0"/>
    <circle id="Ellipse_737" cx="1.648" cy="1.648" r="1.648" transform="translate(3.913 4.359)" fill="none" stroke="#fff" stroke-linecap="round" stroke-linejoin="round" stroke-width="1.5" stroke-dasharray="0 0"/>
  </g>
</svg>
