<svg id="Group_3462" data-name="Group 3462" xmlns="http://www.w3.org/2000/svg" xmlns:xlink="http://www.w3.org/1999/xlink" width="30" height="30" viewBox="0 0 30 30">
  <defs>
    <clipPath id="clip-path">
      <rect id="master-card_1_Background_Mask_" data-name="master-card 1 (Background/Mask)" width="30" height="30" fill="none"/>
    </clipPath>
  </defs>
  <g id="master-card_1" data-name="master-card 1">
    <rect id="master-card_1_Background_Mask_2" data-name="master-card 1 (Background/Mask)" width="30" height="30" fill="none"/>
    <g id="master-card_1-2" data-name="master-card 1" clip-path="url(#clip-path)">
      <path id="Vector" d="M28.227,20.689H1.773A1.773,1.773,0,0,1,0,18.916V1.773A1.773,1.773,0,0,1,1.773,0H28.227A1.773,1.773,0,0,1,30,1.773V18.916A1.773,1.773,0,0,1,28.227,20.689Z" transform="translate(0 4.655)" fill="#40aa54"/>
      <path id="Vector-2" data-name="Vector" d="M30,0V4.219H0V0Z" transform="translate(0 8.68)" fill="#fff"/>
      <path id="Vector-3" data-name="Vector" d="M30,0V2.611H0V0Z" transform="translate(0 12.9)" fill="#dadada"/>
      <path id="Vector-4" data-name="Vector" d="M1.261,1.773A1.773,1.773,0,0,1,3.034,0H1.773A1.773,1.773,0,0,0,0,1.773V18.916a1.773,1.773,0,0,0,1.773,1.773H3.034a1.774,1.774,0,0,1-1.774-1.773Z" transform="translate(0 4.655)" fill="#202121" opacity="0.15"/>
      <path id="Vector-5" data-name="Vector" d="M4.569.625a2.8,2.8,0,1,0,0,4.359,2.8,2.8,0,0,1,0-4.359Z" transform="translate(18.44 17.597)" fill="#ea001b"/>
      <path id="Vector-6" data-name="Vector" d="M0,.625A2.8,2.8,0,0,1,1.04,2.8,2.8,2.8,0,0,1,0,4.984,2.8,2.8,0,1,0,0,.625Z" transform="translate(23.01 17.597)" fill="#f79f1a"/>
      <path id="Vector-7" data-name="Vector" d="M1.04,0a2.8,2.8,0,0,0,0,4.359,2.8,2.8,0,0,0,1.04-2.179A2.8,2.8,0,0,0,1.04,0Z" transform="translate(21.971 18.222)" fill="#ff5f01"/>
      <g id="Group" transform="translate(2.758 17.931)">
        <path id="Vector-8" data-name="Vector" d="M.489.978A.489.489,0,1,1,.489,0H6.62a.489.489,0,0,1,0,.978Z" fill="#fff"/>
        <path id="Vector-9" data-name="Vector" d="M.489.978A.489.489,0,1,1,.489,0H6.62a.489.489,0,0,1,0,.978Z" transform="translate(0 2.033)" fill="#fff"/>
        <path id="Vector-10" data-name="Vector" d="M.489.978A.489.489,0,0,1,.489,0H6.62a.489.489,0,0,1,0,.978Z" transform="translate(0 4.066)" fill="#fff"/>
      </g>
    </g>
  </g>
</svg>
