<svg id="Wallet" xmlns="http://www.w3.org/2000/svg" width="12.5" height="11.875" viewBox="0 0 12.5 11.875">
  <path id="Wallet-2" data-name="Wallet" d="M3.632,11.875A3.678,3.678,0,0,1,0,8.16V3.715A3.679,3.679,0,0,1,3.632,0H8.868A3.679,3.679,0,0,1,12.5,3.715V8.16a3.678,3.678,0,0,1-3.632,3.714ZM.909,3.715V8.16a2.758,2.758,0,0,0,2.723,2.785H8.868A2.758,2.758,0,0,0,11.592,8.16V7.988h-2a2.133,2.133,0,0,1-.114-4.26l.114,0h2V3.715A2.759,2.759,0,0,0,8.868.929H3.632A2.758,2.758,0,0,0,.909,3.715Zm7.509,2.14A1.193,1.193,0,0,0,9.5,7.055l.092,0h2v-2.4h-2A1.189,1.189,0,0,0,8.418,5.855Zm1.265.427a.465.465,0,0,1-.062-.924l.062,0h.188a.465.465,0,0,1,.062.924l-.062,0ZM3.2,3.74a.465.465,0,0,1-.061-.925l.061,0h3.27a.466.466,0,0,1,.062.925l-.062,0Z" fill="#fff"/>
</svg>
